<svg width="6" height="7" viewBox="0 0 6 7" fill="none" xmlns="http://www.w3.org/2000/svg">
<g clip-path="url(#clip0_2_466)">
<path d="M1.93089 5.75298V6.05845H1.75633V5.75298C1.75641 5.71846 1.74967 5.68426 1.73649 5.65236C1.72331 5.62045 1.70395 5.59147 1.67953 5.56707C1.65861 5.54702 1.63477 5.53025 1.60883 5.51733C1.60137 5.51948 1.59379 5.52123 1.58614 5.52256C1.57868 5.52472 1.5711 5.52647 1.56345 5.5278C1.54162 5.53233 1.5194 5.53467 1.49711 5.53478H1.4945C1.47192 5.53463 1.44941 5.53229 1.42729 5.5278H1.40635L1.38278 5.52169C1.33872 5.54246 1.30133 5.57511 1.27481 5.61597C1.24829 5.65683 1.23369 5.70428 1.23266 5.75298V6.05845H1.05811V5.75298C1.05836 5.68909 1.07265 5.62604 1.09994 5.56828C1.12724 5.51052 1.16688 5.45946 1.21608 5.4187C1.16105 5.36364 1.12359 5.29351 1.10842 5.21716C1.09325 5.14081 1.10106 5.06167 1.13086 4.98976C1.16066 4.91785 1.21111 4.85639 1.27583 4.81315C1.34056 4.76991 1.41665 4.74683 1.4945 4.74683C1.57234 4.74683 1.64843 4.76991 1.71316 4.81315C1.77788 4.85639 1.82834 4.91785 1.85813 4.98976C1.88793 5.06167 1.89574 5.14081 1.88057 5.21716C1.8654 5.29351 1.82794 5.36364 1.77291 5.4187C1.78339 5.42656 1.79299 5.43528 1.80259 5.44401C1.8843 5.52614 1.93039 5.63713 1.93089 5.75298Z" fill="white"/>
<path d="M1.93089 3.87651V4.18199H1.75633V3.87651C1.75641 3.84199 1.74967 3.8078 1.73649 3.77589C1.72331 3.74399 1.70395 3.715 1.67953 3.69061C1.65861 3.67055 1.63477 3.65378 1.60883 3.64086C1.60137 3.64302 1.59379 3.64477 1.58614 3.6461C1.57868 3.64826 1.5711 3.65001 1.56345 3.65133C1.54077 3.65604 1.51766 3.65838 1.4945 3.65832C1.47192 3.65817 1.44941 3.65583 1.42729 3.65133H1.40635L1.38278 3.64523C1.33872 3.666 1.30133 3.69865 1.27481 3.73951C1.24829 3.78037 1.23369 3.82781 1.23266 3.87651V4.18199H1.05811V3.87651C1.05836 3.81263 1.07265 3.74958 1.09994 3.69182C1.12724 3.63406 1.16688 3.583 1.21608 3.54224C1.16105 3.48718 1.12359 3.41704 1.10842 3.34069C1.09325 3.26434 1.10106 3.18521 1.13086 3.1133C1.16066 3.04139 1.21111 2.97992 1.27583 2.93668C1.34056 2.89344 1.41665 2.87036 1.4945 2.87036C1.57234 2.87036 1.64843 2.89344 1.71316 2.93668C1.77788 2.97992 1.82834 3.04139 1.85813 3.1133C1.88793 3.18521 1.89574 3.26434 1.88057 3.34069C1.8654 3.41704 1.82794 3.48718 1.77291 3.54224C1.78339 3.55009 1.79299 3.55882 1.80259 3.56755C1.8843 3.64967 1.93039 3.76067 1.93089 3.87651Z" fill="white"/>
<path d="M1.93089 2.00005V2.30552H1.75633V2.00005C1.75641 1.96553 1.74967 1.93133 1.73649 1.89943C1.72331 1.86752 1.70395 1.83854 1.67953 1.81415C1.65861 1.79409 1.63477 1.77732 1.60883 1.7644C1.60137 1.76655 1.59379 1.7683 1.58614 1.76963C1.57868 1.77179 1.5711 1.77354 1.56345 1.77487C1.54162 1.7794 1.5194 1.78174 1.49711 1.78185H1.4945C1.47192 1.7817 1.44941 1.77936 1.42729 1.77487H1.40635L1.38278 1.76876C1.33872 1.78953 1.30133 1.82218 1.27481 1.86304C1.24829 1.9039 1.23369 1.95135 1.23266 2.00005V2.30552H1.05811V2.00005C1.05836 1.93616 1.07265 1.87311 1.09994 1.81535C1.12724 1.75759 1.16688 1.70653 1.21608 1.66577C1.16105 1.61071 1.12359 1.54058 1.10842 1.46423C1.09325 1.38788 1.10106 1.30874 1.13086 1.23683C1.16066 1.16492 1.21111 1.10346 1.27583 1.06022C1.34056 1.01698 1.41665 0.993896 1.4945 0.993896C1.57234 0.993896 1.64843 1.01698 1.71316 1.06022C1.77788 1.10346 1.82834 1.16492 1.85813 1.23683C1.88793 1.30874 1.89574 1.38788 1.88057 1.46423C1.8654 1.54058 1.82794 1.61071 1.77291 1.66577C1.78339 1.67363 1.79299 1.68236 1.80259 1.69108C1.8843 1.77321 1.93039 1.8842 1.93089 2.00005V2.00005Z" fill="white"/>
<path d="M4.46199 3.22192H2.71642C2.64698 3.22192 2.58038 3.24951 2.53128 3.29861C2.48218 3.34772 2.45459 3.41432 2.45459 3.48376V3.65831C2.45459 3.72776 2.48218 3.79436 2.53128 3.84346C2.58038 3.89256 2.64698 3.92015 2.71642 3.92015H4.46199C4.53143 3.92015 4.59803 3.89256 4.64713 3.84346C4.69623 3.79436 4.72382 3.72776 4.72382 3.65831V3.48376C4.72382 3.41432 4.69623 3.34772 4.64713 3.29861C4.59803 3.24951 4.53143 3.22192 4.46199 3.22192V3.22192ZM4.54926 3.65831C4.54926 3.68146 4.54007 3.70366 4.5237 3.72003C4.50733 3.7364 4.48513 3.74559 4.46199 3.74559H3.58921V3.39648H4.46199C4.48513 3.39648 4.50733 3.40568 4.5237 3.42204C4.54007 3.43841 4.54926 3.46061 4.54926 3.48376V3.65831Z" fill="white"/>
<path d="M4.46199 1.38916H2.71642C2.64698 1.38916 2.58038 1.41675 2.53128 1.46585C2.48218 1.51495 2.45459 1.58155 2.45459 1.65099V1.82555C2.45459 1.89499 2.48218 1.96159 2.53128 2.0107C2.58038 2.0598 2.64698 2.08738 2.71642 2.08738H4.46199C4.53143 2.08738 4.59803 2.0598 4.64713 2.0107C4.69623 1.96159 4.72382 1.89499 4.72382 1.82555V1.65099C4.72382 1.58155 4.69623 1.51495 4.64713 1.46585C4.59803 1.41675 4.53143 1.38916 4.46199 1.38916V1.38916ZM4.54926 1.82555C4.54926 1.8487 4.54007 1.8709 4.5237 1.88727C4.50733 1.90363 4.48513 1.91283 4.46199 1.91283H3.32737V1.56372H4.46199C4.48513 1.56372 4.50733 1.57291 4.5237 1.58928C4.54007 1.60565 4.54926 1.62785 4.54926 1.65099V1.82555Z" fill="white"/>
<path d="M4.46199 5.05469H2.71642C2.64698 5.05469 2.58038 5.08227 2.53128 5.13138C2.48218 5.18048 2.45459 5.24708 2.45459 5.31652V5.49108C2.45459 5.56052 2.48218 5.62712 2.53128 5.67622C2.58038 5.72533 2.64698 5.75291 2.71642 5.75291H4.46199C4.53143 5.75291 4.59803 5.72533 4.64713 5.67622C4.69623 5.62712 4.72382 5.56052 4.72382 5.49108V5.31652C4.72382 5.24708 4.69623 5.18048 4.64713 5.13138C4.59803 5.08227 4.53143 5.05469 4.46199 5.05469V5.05469ZM4.54926 5.49108C4.54926 5.51423 4.54007 5.53643 4.5237 5.55279C4.50733 5.56916 4.48513 5.57836 4.46199 5.57836H4.0256V5.22924H4.46199C4.48513 5.22924 4.50733 5.23844 4.5237 5.25481C4.54007 5.27117 4.54926 5.29337 4.54926 5.31652V5.49108Z" fill="white"/>
</g>
<defs>
<clipPath id="clip0_2_466">
<rect width="5.5858" height="5.5858" fill="white" transform="translate(0.0981445 0.778076)"/>
</clipPath>
</defs>
</svg>
