<svg width="6" height="7" viewBox="0 0 6 7" fill="none" xmlns="http://www.w3.org/2000/svg">
<g clip-path="url(#clip0_2_586)">
<path d="M2.02635 5.75298V6.05845H1.85179V5.75298C1.85187 5.71846 1.84513 5.68426 1.83195 5.65236C1.81877 5.62045 1.79941 5.59147 1.77498 5.56707C1.75407 5.54702 1.73023 5.53025 1.70429 5.51733C1.69683 5.51948 1.68925 5.52123 1.6816 5.52256C1.67413 5.52472 1.66656 5.52647 1.6589 5.5278C1.63708 5.53233 1.61486 5.53467 1.59257 5.53478H1.58996C1.56738 5.53463 1.54487 5.53229 1.52275 5.5278H1.5018L1.47824 5.52169C1.43418 5.54246 1.39679 5.57511 1.37027 5.61597C1.34375 5.65683 1.32915 5.70428 1.32812 5.75298V6.05845H1.15356V5.75298C1.15382 5.68909 1.1681 5.62604 1.1954 5.56828C1.2227 5.51052 1.26234 5.45946 1.31154 5.4187C1.25651 5.36364 1.21905 5.29351 1.20388 5.21716C1.18871 5.14081 1.19652 5.06167 1.22632 4.98976C1.25612 4.91785 1.30657 4.85639 1.37129 4.81315C1.43602 4.76991 1.51211 4.74683 1.58996 4.74683C1.6678 4.74683 1.74389 4.76991 1.80862 4.81315C1.87334 4.85639 1.92379 4.91785 1.95359 4.98976C1.98339 5.06167 1.9912 5.14081 1.97603 5.21716C1.96086 5.29351 1.9234 5.36364 1.86837 5.4187C1.87885 5.42656 1.88845 5.43528 1.89805 5.44401C1.97976 5.52614 2.02585 5.63713 2.02635 5.75298Z" fill="white"/>
<path d="M2.02635 3.87651V4.18199H1.85179V3.87651C1.85187 3.84199 1.84513 3.8078 1.83195 3.77589C1.81877 3.74399 1.79941 3.715 1.77498 3.69061C1.75407 3.67055 1.73023 3.65378 1.70429 3.64086C1.69683 3.64302 1.68925 3.64477 1.6816 3.6461C1.67413 3.64826 1.66656 3.65001 1.6589 3.65133C1.63622 3.65604 1.61312 3.65838 1.58996 3.65832C1.56738 3.65817 1.54487 3.65583 1.52275 3.65133H1.5018L1.47824 3.64523C1.43418 3.666 1.39679 3.69865 1.37027 3.73951C1.34375 3.78037 1.32915 3.82781 1.32812 3.87651V4.18199H1.15356V3.87651C1.15382 3.81263 1.1681 3.74958 1.1954 3.69182C1.2227 3.63406 1.26234 3.583 1.31154 3.54224C1.25651 3.48718 1.21905 3.41704 1.20388 3.34069C1.18871 3.26434 1.19652 3.18521 1.22632 3.1133C1.25612 3.04139 1.30657 2.97992 1.37129 2.93668C1.43602 2.89344 1.51211 2.87036 1.58996 2.87036C1.6678 2.87036 1.74389 2.89344 1.80862 2.93668C1.87334 2.97992 1.92379 3.04139 1.95359 3.1133C1.98339 3.18521 1.9912 3.26434 1.97603 3.34069C1.96086 3.41704 1.9234 3.48718 1.86837 3.54224C1.87885 3.55009 1.88845 3.55882 1.89805 3.56755C1.97976 3.64967 2.02585 3.76067 2.02635 3.87651Z" fill="white"/>
<path d="M2.02635 2.00005V2.30552H1.85179V2.00005C1.85187 1.96553 1.84513 1.93133 1.83195 1.89943C1.81877 1.86752 1.79941 1.83854 1.77498 1.81415C1.75407 1.79409 1.73023 1.77732 1.70429 1.7644C1.69683 1.76655 1.68925 1.7683 1.6816 1.76963C1.67413 1.77179 1.66656 1.77354 1.6589 1.77487C1.63708 1.7794 1.61486 1.78174 1.59257 1.78185H1.58996C1.56738 1.7817 1.54487 1.77936 1.52275 1.77487H1.5018L1.47824 1.76876C1.43418 1.78953 1.39679 1.82218 1.37027 1.86304C1.34375 1.9039 1.32915 1.95135 1.32812 2.00005V2.30552H1.15356V2.00005C1.15382 1.93616 1.1681 1.87311 1.1954 1.81535C1.2227 1.75759 1.26234 1.70653 1.31154 1.66577C1.25651 1.61071 1.21905 1.54058 1.20388 1.46423C1.18871 1.38788 1.19652 1.30874 1.22632 1.23683C1.25612 1.16492 1.30657 1.10346 1.37129 1.06022C1.43602 1.01698 1.51211 0.993896 1.58996 0.993896C1.6678 0.993896 1.74389 1.01698 1.80862 1.06022C1.87334 1.10346 1.92379 1.16492 1.95359 1.23683C1.98339 1.30874 1.9912 1.38788 1.97603 1.46423C1.96086 1.54058 1.9234 1.61071 1.86837 1.66577C1.87885 1.67363 1.88845 1.68236 1.89805 1.69108C1.97976 1.77321 2.02585 1.8842 2.02635 2.00005V2.00005Z" fill="white"/>
<path d="M4.55769 3.22192H2.81213C2.74268 3.22192 2.67609 3.24951 2.62698 3.29861C2.57788 3.34772 2.55029 3.41432 2.55029 3.48376V3.65831C2.55029 3.72776 2.57788 3.79436 2.62698 3.84346C2.67609 3.89256 2.74268 3.92015 2.81213 3.92015H4.55769C4.62713 3.92015 4.69373 3.89256 4.74283 3.84346C4.79194 3.79436 4.81952 3.72776 4.81952 3.65831V3.48376C4.81952 3.41432 4.79194 3.34772 4.74283 3.29861C4.69373 3.24951 4.62713 3.22192 4.55769 3.22192V3.22192ZM4.64497 3.65831C4.64497 3.68146 4.63577 3.70366 4.6194 3.72003C4.60304 3.7364 4.58084 3.74559 4.55769 3.74559H3.68491V3.39648H4.55769C4.58084 3.39648 4.60304 3.40568 4.6194 3.42204C4.63577 3.43841 4.64497 3.46061 4.64497 3.48376V3.65831Z" fill="white"/>
<path d="M4.55769 1.38916H2.81213C2.74268 1.38916 2.67609 1.41675 2.62698 1.46585C2.57788 1.51495 2.55029 1.58155 2.55029 1.65099V1.82555C2.55029 1.89499 2.57788 1.96159 2.62698 2.0107C2.67609 2.0598 2.74268 2.08738 2.81213 2.08738H4.55769C4.62713 2.08738 4.69373 2.0598 4.74283 2.0107C4.79194 1.96159 4.81952 1.89499 4.81952 1.82555V1.65099C4.81952 1.58155 4.79194 1.51495 4.74283 1.46585C4.69373 1.41675 4.62713 1.38916 4.55769 1.38916V1.38916ZM4.64497 1.82555C4.64497 1.8487 4.63577 1.8709 4.6194 1.88727C4.60304 1.90363 4.58084 1.91283 4.55769 1.91283H3.42307V1.56372H4.55769C4.58084 1.56372 4.60304 1.57291 4.6194 1.58928C4.63577 1.60565 4.64497 1.62785 4.64497 1.65099V1.82555Z" fill="white"/>
<path d="M4.55769 5.05469H2.81213C2.74268 5.05469 2.67609 5.08227 2.62698 5.13138C2.57788 5.18048 2.55029 5.24708 2.55029 5.31652V5.49108C2.55029 5.56052 2.57788 5.62712 2.62698 5.67622C2.67609 5.72533 2.74268 5.75291 2.81213 5.75291H4.55769C4.62713 5.75291 4.69373 5.72533 4.74283 5.67622C4.79194 5.62712 4.81952 5.56052 4.81952 5.49108V5.31652C4.81952 5.24708 4.79194 5.18048 4.74283 5.13138C4.69373 5.08227 4.62713 5.05469 4.55769 5.05469V5.05469ZM4.64497 5.49108C4.64497 5.51423 4.63577 5.53643 4.6194 5.55279C4.60304 5.56916 4.58084 5.57836 4.55769 5.57836H4.1213V5.22924H4.55769C4.58084 5.22924 4.60304 5.23844 4.6194 5.25481C4.63577 5.27117 4.64497 5.29337 4.64497 5.31652V5.49108Z" fill="white"/>
</g>
<defs>
<clipPath id="clip0_2_586">
<rect width="5.5858" height="5.5858" fill="white" transform="translate(0.193604 0.778076)"/>
</clipPath>
</defs>
</svg>
