<svg width="6" height="6" viewBox="0 0 6 6" fill="none" xmlns="http://www.w3.org/2000/svg">
<g clip-path="url(#clip0_2_1575)">
<path d="M2.80536 2.72998C3.15299 2.72998 3.43481 2.44816 3.43481 2.10052C3.43481 1.75289 3.15299 1.47107 2.80536 1.47107C2.45772 1.47107 2.1759 1.75289 2.1759 2.10052C2.1759 2.44816 2.45772 2.72998 2.80536 2.72998Z" stroke="white" stroke-width="0.503563" stroke-linecap="round" stroke-linejoin="round"/>
<path d="M2.80513 0.421997C2.35995 0.421997 1.93301 0.598843 1.61822 0.913631C1.30343 1.22842 1.12659 1.65536 1.12659 2.10054C1.12659 2.49752 1.21093 2.75727 1.44131 3.04472L2.80513 4.61835L4.16895 3.04472C4.39933 2.75727 4.48367 2.49752 4.48367 2.10054C4.48367 1.65536 4.30683 1.22842 3.99204 0.913631C3.67725 0.598843 3.25031 0.421997 2.80513 0.421997V0.421997Z" stroke="white" stroke-width="0.503563" stroke-linecap="round" stroke-linejoin="round"/>
</g>
<defs>
<clipPath id="clip0_2_1575">
<rect width="5.03563" height="5.03563" fill="white" transform="translate(0.287598 0.00238037)"/>
</clipPath>
</defs>
</svg>
