<svg width="6" height="6" viewBox="0 0 6 6" fill="none" xmlns="http://www.w3.org/2000/svg">
<g clip-path="url(#clip0_2_1605)">
<path d="M5.05682 1.38781H4.38803L4.22869 0.941289C4.21769 0.910735 4.19751 0.884325 4.17093 0.865665C4.14435 0.847006 4.11266 0.837007 4.08018 0.837036H2.57146C2.50507 0.837036 2.44557 0.878836 2.42344 0.941289L2.26362 1.38781H1.59482C1.37747 1.38781 1.20142 1.56386 1.20142 1.78122V4.02365C1.20142 4.241 1.37747 4.41705 1.59482 4.41705H5.05682C5.27418 4.41705 5.45023 4.241 5.45023 4.02365V1.78122C5.45023 1.56386 5.27418 1.38781 5.05682 1.38781ZM3.32582 3.63024C2.89111 3.63024 2.53901 3.27814 2.53901 2.84342C2.53901 2.4087 2.89111 2.0566 3.32582 2.0566C3.76054 2.0566 4.11264 2.4087 4.11264 2.84342C4.11264 3.27814 3.76054 3.63024 3.32582 3.63024ZM2.85373 2.84342C2.85373 2.96863 2.90347 3.0887 2.992 3.17724C3.08054 3.26577 3.20062 3.31551 3.32582 3.31551C3.45103 3.31551 3.57111 3.26577 3.65964 3.17724C3.74817 3.0887 3.79791 2.96863 3.79791 2.84342C3.79791 2.71821 3.74817 2.59814 3.65964 2.5096C3.57111 2.42107 3.45103 2.37133 3.32582 2.37133C3.20062 2.37133 3.08054 2.42107 2.992 2.5096C2.90347 2.59814 2.85373 2.71821 2.85373 2.84342Z" fill="black"/>
</g>
<defs>
<clipPath id="clip0_2_1605">
<rect width="5.03563" height="5.03563" fill="white" transform="translate(0.807251 0.109253)"/>
</clipPath>
</defs>
</svg>
