<svg width="6" height="6" viewBox="0 0 6 6" fill="none" xmlns="http://www.w3.org/2000/svg">
<g clip-path="url(#clip0_2_1146)">
<path d="M5.08275 1.85643H4.42203L4.26463 1.41531C4.25375 1.38513 4.23383 1.35903 4.20757 1.3406C4.18131 1.32217 4.15 1.31229 4.11791 1.31232H2.62742C2.56183 1.31232 2.50305 1.35361 2.48119 1.41531L2.3233 1.85643H1.66258C1.44785 1.85643 1.27393 2.03036 1.27393 2.24509V4.46043C1.27393 4.67516 1.44785 4.84908 1.66258 4.84908H5.08275C5.29748 4.84908 5.4714 4.67516 5.4714 4.46043V2.24509C5.4714 2.03036 5.29748 1.85643 5.08275 1.85643ZM3.37267 4.07177C2.9432 4.07177 2.59535 3.72392 2.59535 3.29446C2.59535 2.865 2.9432 2.51715 3.37267 2.51715C3.80213 2.51715 4.14998 2.865 4.14998 3.29446C4.14998 3.72392 3.80213 4.07177 3.37267 4.07177ZM2.90628 3.29446C2.90628 3.41815 2.95542 3.53678 3.04288 3.62424C3.13034 3.71171 3.24897 3.76085 3.37267 3.76085C3.49636 3.76085 3.61499 3.71171 3.70245 3.62424C3.78991 3.53678 3.83905 3.41815 3.83905 3.29446C3.83905 3.17077 3.78991 3.05214 3.70245 2.96467C3.61499 2.87721 3.49636 2.82807 3.37267 2.82807C3.24897 2.82807 3.13034 2.87721 3.04288 2.96467C2.95542 3.05214 2.90628 3.17077 2.90628 3.29446Z" fill="black"/>
</g>
<defs>
<clipPath id="clip0_2_1146">
<rect width="4.97479" height="4.97479" fill="white" transform="translate(0.885254 0.593323)"/>
</clipPath>
</defs>
</svg>
