<svg width="6" height="6" viewBox="0 0 6 6" fill="none" xmlns="http://www.w3.org/2000/svg">
<g clip-path="url(#clip0_2_455)">
<path d="M3.0174 1.82387C2.85921 1.75011 2.67118 1.81856 2.59742 1.97676L2.23947 2.74446C2.23947 2.74446 1.08585 3.19205 0.737174 3.36895C0.441908 3.51874 0.54697 4.01996 0.54697 4.01996L0.771022 5.52469H2.24779L1.97313 3.68013L2.66909 3.32114C2.73548 3.28678 2.79006 3.22898 2.81915 3.15378L3.17861 2.22429C3.2376 2.07072 3.16881 1.89446 3.0174 1.82387Z" fill="white"/>
<path d="M0.79184 2.99481C1.17496 2.99481 1.48553 2.68423 1.48553 2.30112C1.48553 1.918 1.17496 1.60742 0.79184 1.60742C0.408722 1.60742 0.0981445 1.918 0.0981445 2.30112C0.0981445 2.68423 0.408722 2.99481 0.79184 2.99481Z" fill="white"/>
<path d="M3.75914 2.04049C4.14226 2.04049 4.45285 1.72991 4.45285 1.34678C4.45285 0.96366 4.14226 0.653076 3.75914 0.653076C3.37601 0.653076 3.06543 0.96366 3.06543 1.34678C3.06543 1.72991 3.37601 2.04049 3.75914 2.04049Z" fill="white"/>
<path d="M5.61724 2.21729H4.0725C4.03583 2.21729 4.0061 2.247 4.0061 2.28368V2.58839C4.0061 2.62506 4.03583 2.65478 4.0725 2.65478H4.19718L4.30634 3.65336C4.31032 3.68982 4.34313 3.71591 4.37954 3.71215L4.50206 3.69877C4.51957 3.69684 4.53559 3.68805 4.54661 3.67434C4.55765 3.66059 4.56276 3.64306 4.56085 3.62555L4.55136 3.53879L4.84487 3.28961L5.13838 3.53877L5.12889 3.62554C5.12698 3.64304 5.13209 3.66058 5.14312 3.67432C5.15414 3.68804 5.17017 3.69683 5.18767 3.69876L5.3102 3.71214C5.31265 3.71241 5.31508 3.71253 5.3175 3.71253C5.35094 3.71253 5.3797 3.68735 5.38341 3.65334L5.49255 2.65477H5.61724C5.65392 2.65477 5.68363 2.62505 5.68363 2.58837V2.28367C5.68363 2.24699 5.65392 2.21729 5.61724 2.21729ZM4.52249 3.27462L4.49132 2.98951L4.67483 3.14528L4.52249 3.27462ZM5.16725 3.27462L5.0149 3.1453L5.19842 2.98952L5.16725 3.27462ZM5.23321 2.67129L4.84487 3.00094L4.45655 2.67129L4.45474 2.65477H5.23501L5.23321 2.67129Z" fill="white"/>
</g>
<defs>
<clipPath id="clip0_2_455">
<rect width="5.5858" height="5.5858" fill="white" transform="translate(0.0981445 0.295898)"/>
</clipPath>
</defs>
</svg>
