<svg width="7" height="7" viewBox="0 0 7 7" fill="none" xmlns="http://www.w3.org/2000/svg">
<g clip-path="url(#clip0_2_579)">
<path d="M1.70042 5.19592C1.43859 5.19592 1.19421 5.10864 1.0022 4.96899V5.19592C1.0022 5.49266 1.22912 5.71959 1.52587 5.71959C1.52587 5.82432 1.59569 5.89414 1.70042 5.89414C1.80516 5.89414 1.87498 5.82432 1.87498 5.71959H4.66788C4.66788 5.82432 4.7377 5.89414 4.84243 5.89414C4.94717 5.89414 5.01699 5.82432 5.01699 5.71959C5.31374 5.71959 5.54066 5.49266 5.54066 5.19592V4.96899C5.34865 5.10864 5.10427 5.19592 4.84243 5.19592H1.70042Z" fill="white"/>
<path d="M5.19252 2.05394H4.14518V1.87938C4.14518 1.58264 3.91826 1.35571 3.62151 1.35571H2.92329C2.62654 1.35571 2.39962 1.58264 2.39962 1.87938V2.05394H1.35228C1.05554 2.05394 0.828613 2.28086 0.828613 2.57761V3.97406C0.828613 4.46281 1.21264 4.84684 1.70139 4.84684H2.60909C2.59163 4.79447 2.57418 4.7421 2.57418 4.67228V4.14861C2.57418 4.04388 2.644 3.97406 2.74873 3.97406H3.79607C3.9008 3.97406 3.97063 4.04388 3.97063 4.14861V4.67228C3.97063 4.7421 3.95317 4.79447 3.93571 4.84684H4.84341C5.33216 4.84684 5.71619 4.46281 5.71619 3.97406V2.57761C5.71619 2.28086 5.48926 2.05394 5.19252 2.05394ZM2.74873 1.87938C2.74873 1.77465 2.81855 1.70483 2.92329 1.70483H3.62151C3.72625 1.70483 3.79607 1.77465 3.79607 1.87938V2.05394H2.74873V1.87938Z" fill="white"/>
</g>
<defs>
<clipPath id="clip0_2_579">
<rect width="5.5858" height="5.5858" fill="white" transform="translate(0.479492 0.832275)"/>
</clipPath>
</defs>
</svg>
