<svg width="6" height="7" viewBox="0 0 6 7" fill="none" xmlns="http://www.w3.org/2000/svg">
<g clip-path="url(#clip0_2_448)">
<path d="M1.6057 5.19592C1.34386 5.19592 1.09948 5.10864 0.907471 4.96899V5.19592C0.907471 5.49266 1.13439 5.71959 1.43114 5.71959C1.43114 5.82432 1.50096 5.89414 1.6057 5.89414C1.71043 5.89414 1.78025 5.82432 1.78025 5.71959H4.57315C4.57315 5.82432 4.64297 5.89414 4.74771 5.89414C4.85244 5.89414 4.92226 5.82432 4.92226 5.71959C5.21901 5.71959 5.44593 5.49266 5.44593 5.19592V4.96899C5.25392 5.10864 5.00954 5.19592 4.74771 5.19592H1.6057Z" fill="white"/>
<path d="M5.09706 2.05394H4.04972V1.87938C4.04972 1.58264 3.8228 1.35571 3.52605 1.35571H2.82783C2.53108 1.35571 2.30416 1.58264 2.30416 1.87938V2.05394H1.25682C0.960077 2.05394 0.733154 2.28086 0.733154 2.57761V3.97406C0.733154 4.46281 1.11718 4.84684 1.60594 4.84684H2.51363C2.49617 4.79447 2.47872 4.7421 2.47872 4.67228V4.14861C2.47872 4.04388 2.54854 3.97406 2.65327 3.97406H3.70061C3.80534 3.97406 3.87517 4.04388 3.87517 4.14861V4.67228C3.87517 4.7421 3.85771 4.79447 3.84025 4.84684H4.74795C5.2367 4.84684 5.62073 4.46281 5.62073 3.97406V2.57761C5.62073 2.28086 5.39381 2.05394 5.09706 2.05394ZM2.65327 1.87938C2.65327 1.77465 2.7231 1.70483 2.82783 1.70483H3.52605C3.63079 1.70483 3.70061 1.77465 3.70061 1.87938V2.05394H2.65327V1.87938Z" fill="white"/>
</g>
<defs>
<clipPath id="clip0_2_448">
<rect width="5.5858" height="5.5858" fill="white" transform="translate(0.384277 0.832275)"/>
</clipPath>
</defs>
</svg>
