<svg width="6" height="6" viewBox="0 0 6 6" fill="none" xmlns="http://www.w3.org/2000/svg">
<g clip-path="url(#clip0_2_1573)">
<path d="M4.00254 2.76932C3.98307 2.74982 3.95994 2.73434 3.93449 2.72379C3.90904 2.71323 3.88175 2.7078 3.85419 2.7078C3.82664 2.7078 3.79935 2.71323 3.7739 2.72379C3.74844 2.73434 3.72532 2.74982 3.70585 2.76932L3.3714 3.10377C3.21635 3.05761 2.92701 2.9527 2.74363 2.76932C2.56025 2.58594 2.45534 2.2966 2.40918 2.14154L2.74363 1.80709C2.76313 1.78762 2.7786 1.7645 2.78916 1.73905C2.79971 1.71359 2.80515 1.68631 2.80515 1.65875C2.80515 1.63119 2.79971 1.60391 2.78916 1.57845C2.7786 1.553 2.76313 1.52988 2.74363 1.51041L1.90436 0.671138C1.88489 0.651636 1.86177 0.636165 1.83631 0.625609C1.81086 0.615053 1.78357 0.609619 1.75602 0.609619C1.72846 0.609619 1.70117 0.615053 1.67572 0.625609C1.65027 0.636165 1.62714 0.651636 1.60767 0.671138L1.03865 1.24016C0.958917 1.31989 0.914016 1.42942 0.915695 1.54125C0.920521 1.84003 0.999622 2.87779 1.81749 3.69566C2.63536 4.51353 3.67312 4.59242 3.97211 4.59746H3.97799C4.08877 4.59746 4.19347 4.55382 4.27278 4.47451L4.84181 3.90548C4.86131 3.88601 4.87678 3.86289 4.88734 3.83744C4.89789 3.81198 4.90333 3.7847 4.90333 3.75714C4.90333 3.72958 4.89789 3.7023 4.88734 3.67684C4.87678 3.65139 4.86131 3.62827 4.84181 3.6088L4.00254 2.76932ZM3.97589 4.17761C3.71404 4.17321 2.81811 4.10292 2.11417 3.39877C1.40793 2.69252 1.33953 1.79345 1.33533 1.53685L1.75602 1.11616L2.2986 1.65875L2.02731 1.93005C2.00265 1.95469 1.98452 1.98509 1.97455 2.0185C1.96459 2.05191 1.96311 2.08727 1.97024 2.1214C1.97528 2.14553 2.09844 2.7177 2.44674 3.066C2.79503 3.4143 3.36721 3.53746 3.39134 3.5425C3.42544 3.54983 3.46084 3.54847 3.49428 3.53853C3.52772 3.52859 3.55813 3.5104 3.58269 3.48564L3.85419 3.21434L4.39678 3.75693L3.97589 4.17761V4.17761Z" fill="white"/>
</g>
<defs>
<clipPath id="clip0_2_1573">
<rect width="5.03563" height="5.03563" fill="white" transform="translate(0.287598 0.190063)"/>
</clipPath>
</defs>
</svg>
