<svg width="5" height="5" viewBox="0 0 5 5" fill="none" xmlns="http://www.w3.org/2000/svg">
<g clip-path="url(#clip0_2_1106)">
<path d="M3.41306 2.20499C3.39767 2.18958 3.3794 2.17735 3.35928 2.16901C3.33917 2.16067 3.3176 2.15637 3.29582 2.15637C3.27404 2.15637 3.25248 2.16067 3.23236 2.16901C3.21224 2.17735 3.19397 2.18958 3.17858 2.20499L2.91426 2.46932C2.79171 2.43284 2.56304 2.34992 2.4181 2.20499C2.27317 2.06006 2.19026 1.83138 2.15378 1.70884L2.4181 1.44451C2.43352 1.42913 2.44574 1.41085 2.45409 1.39073C2.46243 1.37062 2.46672 1.34905 2.46672 1.32727C2.46672 1.30549 2.46243 1.28393 2.45409 1.26381C2.44574 1.2437 2.43352 1.22542 2.4181 1.21003L1.7548 0.546728C1.73941 0.531316 1.72114 0.519088 1.70102 0.510745C1.6809 0.502402 1.65934 0.498108 1.63756 0.498108C1.61578 0.498108 1.59422 0.502402 1.5741 0.510745C1.55398 0.519088 1.53571 0.531316 1.52032 0.546728L1.0706 0.996449C1.00758 1.05946 0.972098 1.14602 0.973425 1.23441C0.977239 1.47055 1.03976 2.29072 1.68615 2.93712C2.33254 3.58351 3.15271 3.64586 3.38902 3.64984H3.39366C3.48122 3.64984 3.56396 3.61534 3.62665 3.55266L4.07637 3.10294C4.09178 3.08755 4.10401 3.06928 4.11235 3.04916C4.12069 3.02905 4.12499 3.00748 4.12499 2.9857C4.12499 2.96392 4.12069 2.94236 4.11235 2.92224C4.10401 2.90212 4.09178 2.88385 4.07637 2.86846L3.41306 2.20499ZM3.392 3.31802C3.18505 3.31454 2.47697 3.25898 1.92062 2.70247C1.36245 2.1443 1.30839 1.43373 1.30508 1.23093L1.63756 0.898446L2.06639 1.32727L1.85197 1.54169C1.83248 1.56116 1.81815 1.58519 1.81028 1.61159C1.8024 1.638 1.80123 1.66595 1.80687 1.69292C1.81085 1.71199 1.90819 2.1642 2.18346 2.43947C2.45873 2.71474 2.91094 2.81208 2.93001 2.81606C2.95696 2.82186 2.98494 2.82078 3.01137 2.81293C3.0378 2.80507 3.06183 2.7907 3.08124 2.77112L3.29582 2.55671L3.72465 2.98554L3.392 3.31802V3.31802Z" fill="white"/>
</g>
<defs>
<clipPath id="clip0_2_1106">
<rect width="3.97983" height="3.97983" fill="white" transform="translate(0.477051 0.166443)"/>
</clipPath>
</defs>
</svg>
