<svg width="6" height="6" viewBox="0 0 6 6" fill="none" xmlns="http://www.w3.org/2000/svg">
<g clip-path="url(#clip0_2_1571)">
<path d="M4.44179 1.83252H0.665069C0.581598 1.83252 0.501546 1.86568 0.442523 1.9247C0.3835 1.98372 0.350342 2.06378 0.350342 2.14725V4.66506C0.350342 4.74853 0.3835 4.82858 0.442523 4.88761C0.501546 4.94663 0.581598 4.97979 0.665069 4.97979H4.44179C4.52526 4.97979 4.60531 4.94663 4.66434 4.88761C4.72336 4.82858 4.75652 4.74853 4.75652 4.66506V2.14725C4.75652 2.06378 4.72336 1.98372 4.66434 1.9247C4.60531 1.86568 4.52526 1.83252 4.44179 1.83252V1.83252ZM4.09559 2.14725L2.55343 3.21417L1.01127 2.14725H4.09559ZM0.665069 4.66506V2.29045L2.46373 3.53519C2.49007 3.55347 2.52137 3.56326 2.55343 3.56326C2.58549 3.56326 2.61678 3.55347 2.64313 3.53519L4.44179 2.29045V4.66506H0.665069Z" fill="white"/>
</g>
<defs>
<clipPath id="clip0_2_1571">
<rect width="5.03563" height="5.03563" fill="white" transform="translate(0.0355225 0.888367)"/>
</clipPath>
</defs>
</svg>
