<svg width="5" height="5" viewBox="0 0 5 5" fill="none" xmlns="http://www.w3.org/2000/svg">
<g clip-path="url(#clip0_2_1108)">
<path d="M3.95969 1.35968H0.974814C0.908844 1.35968 0.845576 1.38589 0.798928 1.43253C0.752281 1.47918 0.726074 1.54245 0.726074 1.60842V3.59834C0.726074 3.66431 0.752281 3.72757 0.798928 3.77422C0.845576 3.82087 0.908844 3.84708 0.974814 3.84708H3.95969C4.02566 3.84708 4.08893 3.82087 4.13557 3.77422C4.18222 3.72757 4.20843 3.66431 4.20843 3.59834V1.60842C4.20843 1.54245 4.18222 1.47918 4.13557 1.43253C4.08893 1.38589 4.02566 1.35968 3.95969 1.35968V1.35968ZM3.68607 1.60842L2.46725 2.45165L1.24843 1.60842H3.68607ZM0.974814 3.59834V1.7216L2.39636 2.70536C2.41718 2.7198 2.44191 2.72754 2.46725 2.72754C2.49259 2.72754 2.51732 2.7198 2.53814 2.70536L3.95969 1.7216V3.59834H0.974814Z" fill="white"/>
</g>
<defs>
<clipPath id="clip0_2_1108">
<rect width="3.97983" height="3.97983" fill="white" transform="translate(0.477051 0.613525)"/>
</clipPath>
</defs>
</svg>
