<svg width="6" height="6" viewBox="0 0 6 6" fill="none" xmlns="http://www.w3.org/2000/svg">
<g clip-path="url(#clip0_2_191)">
<path d="M3.7973 3.77248L4.15155 3.41822C4.19927 3.3711 4.25964 3.33885 4.32533 3.32537C4.39102 3.31189 4.45921 3.31778 4.52163 3.34231L4.95338 3.5147C5.01645 3.5403 5.07053 3.584 5.10881 3.64028C5.14708 3.69657 5.16784 3.76293 5.16846 3.831V4.62175C5.1681 4.66805 5.15836 4.7138 5.13985 4.75625C5.12133 4.79869 5.09442 4.83694 5.06073 4.86871C5.02705 4.90048 4.98728 4.9251 4.94382 4.94109C4.90037 4.95709 4.85412 4.96412 4.80788 4.96177C1.78246 4.77357 1.172 2.21154 1.05655 1.231C1.05119 1.18285 1.05609 1.13411 1.07092 1.08799C1.08575 1.04187 1.11018 0.999406 1.14259 0.963402C1.17501 0.927398 1.21469 0.898666 1.25901 0.879096C1.30333 0.859527 1.35129 0.849563 1.39974 0.84986H2.1636C2.23177 0.850062 2.29831 0.870652 2.35468 0.908981C2.41105 0.947311 2.45466 1.00163 2.4799 1.06494L2.65229 1.4967C2.67763 1.55886 2.6841 1.62711 2.67088 1.69293C2.65766 1.75875 2.62534 1.81921 2.57796 1.86677L2.2237 2.22103C2.2237 2.22103 2.42771 3.60168 3.7973 3.77248Z" fill="#2F80ED"/>
</g>
<defs>
<clipPath id="clip0_2_191">
<rect width="5.06082" height="5.06082" fill="white" transform="translate(0.582275 0.375488)"/>
</clipPath>
</defs>
</svg>
