<svg width="6" height="6" viewBox="0 0 6 6" fill="none" xmlns="http://www.w3.org/2000/svg">
<g clip-path="url(#clip0_2_207)">
<path d="M4.89346 4.83856H4.14493V3.66397C4.14493 3.38389 4.13908 3.02394 3.75351 3.02394C3.36319 3.02394 3.30373 3.32775 3.30373 3.64326V4.8384H2.55425V2.42328H3.27416V2.75271H3.2838C3.38439 2.56246 3.62904 2.36239 3.99406 2.36239C4.75334 2.36239 4.89425 2.86231 4.89425 3.51231V4.8384L4.89346 4.83856ZM1.70752 2.09322C1.65031 2.09324 1.59366 2.08198 1.54081 2.06007C1.48797 2.03817 1.43996 2.00605 1.39955 1.96556C1.35913 1.92507 1.3271 1.87701 1.30529 1.82412C1.28348 1.77124 1.27232 1.71457 1.27244 1.65736C1.27254 1.57125 1.29816 1.48711 1.34607 1.41557C1.39399 1.34402 1.46203 1.28829 1.54162 1.25542C1.6212 1.22255 1.70875 1.21401 1.79318 1.23089C1.87761 1.24777 1.95515 1.28931 2.01598 1.35025C2.07681 1.41119 2.1182 1.4888 2.13493 1.57326C2.15165 1.65773 2.14296 1.74526 2.10994 1.82478C2.07693 1.9043 2.02107 1.97225 1.94944 2.02003C1.87781 2.06782 1.79362 2.09329 1.70752 2.09322V2.09322ZM2.08297 4.83856H1.33191V2.42344H2.08297V4.83856ZM5.26922 0.525635H0.955511C0.74944 0.525635 0.582275 0.688688 0.582275 0.890488V5.22176C0.582275 5.42356 0.74944 5.58661 0.955511 5.58661H5.26843C5.47419 5.58661 5.64309 5.42356 5.64309 5.22176V0.890488C5.64309 0.688688 5.47419 0.525635 5.26843 0.525635H5.26922Z" fill="#2F80ED"/>
</g>
<defs>
<clipPath id="clip0_2_207">
<rect width="5.06082" height="5.06082" fill="white" transform="translate(0.582275 0.525635)"/>
</clipPath>
</defs>
</svg>
