<svg width="9" height="9" viewBox="0 0 9 9" fill="none" xmlns="http://www.w3.org/2000/svg">
<g clip-path="url(#clip0_2_375)">
<path d="M4.22764 2.66216V2.30903C4.22764 1.74221 3.37967 1.44531 2.5407 1.44531C1.70173 1.44531 0.85376 1.74446 0.85376 2.30903V4.6325C0.85376 5.11834 1.4768 5.404 2.18082 5.47822L2.20331 5.46248V3.95548C2.20331 3.24696 3.03553 2.72064 4.22764 2.66216Z" fill="#2F80ED"/>
<path d="M4.67787 3.57995C4.5719 3.39624 4.5405 3.17885 4.59015 2.97266H4.4417C3.33282 2.97266 2.49609 3.39552 2.49609 3.95783V6.72441C2.49609 7.28672 3.33282 7.70958 4.4417 7.70958C5.55058 7.70958 6.3873 7.28672 6.3873 6.72441V6.23857C5.82812 6.64893 5.14593 6.85676 4.45294 6.82787C3.99314 6.83579 3.53577 6.75956 3.10339 6.60295V6.21383C3.52943 6.39646 3.9895 6.48617 4.45294 6.47699C5.39988 6.47699 6.17362 6.20033 6.39405 5.75048V5.13419C5.98243 5.47832 5.28966 5.70325 4.45294 5.70325C3.99314 5.71117 3.53577 5.63494 3.10339 5.47832V5.08021C3.52943 5.26283 3.9895 5.35255 4.45294 5.34337C5.39988 5.34337 6.17362 5.0937 6.39405 4.64385V3.99382H5.40438C5.25749 3.9953 5.11284 3.95776 4.9852 3.88505C4.85756 3.81234 4.75151 3.70706 4.67787 3.57995V3.57995Z" fill="#2F80ED"/>
<path d="M5.353 1.60962C4.95938 1.75132 4.67822 1.98749 4.67822 2.31139V2.66227H4.73895L5.353 1.60962Z" fill="#2F80ED"/>
<path d="M7.97948 3.99376H6.7019V5.46252L6.71315 5.47601C7.41717 5.40404 8.04021 5.11613 8.04021 4.63254V3.98926L7.97948 3.99376Z" fill="#2F80ED"/>
<path d="M6.44348 0.786391L5.15691 3.00415C5.12697 3.04809 5.10979 3.09945 5.10726 3.15255C5.10473 3.20566 5.11695 3.25842 5.14257 3.305C5.16819 3.35158 5.20621 3.39016 5.25241 3.41646C5.29861 3.44276 5.35119 3.45576 5.40432 3.454H7.97972C8.03285 3.45576 8.08543 3.44276 8.13163 3.41646C8.17783 3.39016 8.21585 3.35158 8.24147 3.305C8.26709 3.25842 8.27931 3.20566 8.27678 3.15255C8.27425 3.09945 8.25707 3.04809 8.22713 3.00415L6.94056 0.786391C6.91519 0.742993 6.8789 0.706995 6.83529 0.681978C6.79169 0.656962 6.74229 0.643799 6.69202 0.643799C6.64175 0.643799 6.59235 0.656962 6.54875 0.681978C6.50514 0.706995 6.46885 0.742993 6.44348 0.786391V0.786391Z" fill="#2F80ED"/>
</g>
<defs>
<clipPath id="clip0_2_375">
<rect width="8.09731" height="8.09731" fill="white" transform="translate(0.403809 0.530029)"/>
</clipPath>
</defs>
</svg>
