<svg width="9" height="8" viewBox="0 0 9 8" fill="none" xmlns="http://www.w3.org/2000/svg">
<g clip-path="url(#clip0_2_136)">
<path d="M2.15773 2.01768C3.07917 0.790897 4.98677 0.433921 6.34472 1.27824C7.68561 2.11195 8.17877 3.71485 7.62957 5.21881C7.11099 6.63889 5.74461 7.20155 4.75979 6.48719C4.39088 6.2196 4.24787 5.88416 4.17875 5.33929L4.14573 5.02977L4.1315 4.90525C4.09308 4.61261 4.03405 4.4815 3.91083 4.41282C3.74303 4.31929 3.6313 4.3171 3.41096 4.4025L3.30095 4.44812L3.24496 4.47254C2.92733 4.61048 2.71604 4.65894 2.44879 4.60294L2.38605 4.58816L2.33482 4.57356C1.46102 4.3028 1.3316 3.11758 2.15773 2.01768ZM6.20816 3.49714C6.26414 3.70606 6.47889 3.83004 6.68781 3.77406C6.89673 3.71808 7.02072 3.50333 6.96474 3.29441C6.90876 3.08549 6.69401 2.96151 6.48509 3.01749C6.27616 3.07347 6.15218 3.28821 6.20816 3.49714ZM6.36312 4.59016C6.4191 4.79908 6.63385 4.92306 6.84277 4.86708C7.05169 4.8111 7.17568 4.59635 7.1197 4.38743C7.06371 4.17851 6.84897 4.05453 6.64005 4.11051C6.43112 4.16649 6.30714 4.38123 6.36312 4.59016ZM5.58828 2.55638C5.64426 2.7653 5.85901 2.88928 6.06793 2.8333C6.27686 2.77732 6.40084 2.56258 6.34486 2.35365C6.28888 2.14473 6.07413 2.02075 5.86521 2.07673C5.65629 2.13271 5.5323 2.34745 5.58828 2.55638ZM5.57936 5.37563C5.63534 5.58455 5.85009 5.70853 6.05901 5.65255C6.26793 5.59657 6.39192 5.38182 6.33594 5.1729C6.27995 4.96398 6.06521 4.83999 5.85629 4.89598C5.64736 4.95196 5.52338 5.1667 5.57936 5.37563ZM4.48375 2.25197C4.53973 2.46089 4.75448 2.58488 4.9634 2.5289C5.17233 2.47292 5.29631 2.25817 5.24033 2.04925C5.18435 1.84032 4.9696 1.71634 4.76068 1.77232C4.55176 1.8283 4.42777 2.04305 4.48375 2.25197Z" fill="white"/>
</g>
<defs>
<clipPath id="clip0_2_136">
<rect width="7.51934" height="7.51934" fill="white" transform="translate(0.954834 0.182617)"/>
</clipPath>
</defs>
</svg>
