<svg width="7" height="7" viewBox="0 0 7 7" fill="none" xmlns="http://www.w3.org/2000/svg">
<path d="M4.46521 4.63543C4.70218 4.63543 4.89428 4.44333 4.89428 4.20636C4.89428 3.96939 4.70218 3.77728 4.46521 3.77728C4.22824 3.77728 4.03613 3.96939 4.03613 4.20636C4.03613 4.44333 4.22824 4.63543 4.46521 4.63543Z" fill="black"/>
<path d="M5.06627 2.91905H4.60859C4.43696 2.14672 3.69323 1.63183 2.92089 1.80346C2.34879 1.91788 1.89111 2.34695 1.77669 2.91905H1.57645C1.2904 2.91905 1.03296 3.1765 1.03296 3.46255V3.83442C1.03296 4.03465 1.20459 4.20628 1.40482 4.20628H1.49064C1.49064 3.83442 1.8053 3.51976 2.17716 3.51976C2.54903 3.51976 2.86368 3.83442 2.86368 4.20628H3.77904C3.77904 3.83442 4.0937 3.51976 4.46556 3.51976C4.83743 3.51976 5.15208 3.83442 5.15208 4.20628H5.2379C5.43814 4.20628 5.60977 4.03465 5.60977 3.83442V3.49116C5.60977 3.1765 5.35232 2.91905 5.06627 2.91905V2.91905ZM2.23437 2.91905C2.3774 2.37556 2.9495 2.08951 3.46439 2.23253C3.77904 2.31835 4.03649 2.57579 4.15091 2.91905H2.23437ZM2.17716 3.77721C1.94832 3.77721 1.74808 3.97744 1.74808 4.20628C1.74808 4.43512 1.94832 4.63536 2.17716 4.63536C2.406 4.63536 2.60624 4.43512 2.60624 4.20628C2.60624 3.97744 2.406 3.77721 2.17716 3.77721Z" fill="black"/>
</svg>
