<svg width="7" height="7" viewBox="0 0 7 7" fill="none" xmlns="http://www.w3.org/2000/svg">
<g clip-path="url(#clip0_2_1610)">
<path d="M4.85864 5.20074C5.09851 5.20074 5.29296 5.00629 5.29296 4.76642C5.29296 4.52655 5.09851 4.33209 4.85864 4.33209C4.61877 4.33209 4.42432 4.52655 4.42432 4.76642C4.42432 5.00629 4.61877 5.20074 4.85864 5.20074Z" fill="black"/>
<path d="M5.46655 3.46344H5.00327C4.82954 2.68166 4.07671 2.16047 3.29493 2.3342C2.71584 2.45002 2.25256 2.88434 2.13674 3.46344H1.93405C1.6445 3.46344 1.38391 3.72403 1.38391 4.01358V4.38999C1.38391 4.59268 1.55764 4.76641 1.76032 4.76641H1.84719C1.84719 4.38999 2.16569 4.07149 2.54211 4.07149C2.91852 4.07149 3.23702 4.38999 3.23702 4.76641H4.16358C4.16358 4.38999 4.48208 4.07149 4.8585 4.07149C5.23491 4.07149 5.55341 4.38999 5.55341 4.76641H5.64028C5.84296 4.76641 6.01669 4.59268 6.01669 4.38999V4.04253C6.01669 3.72403 5.7561 3.46344 5.46655 3.46344V3.46344ZM2.60002 3.46344C2.74479 2.91329 3.32389 2.62375 3.84508 2.76852C4.16358 2.85538 4.42417 3.11598 4.53999 3.46344H2.60002ZM2.54211 4.33208C2.31047 4.33208 2.10778 4.53477 2.10778 4.76641C2.10778 4.99804 2.31047 5.20073 2.54211 5.20073C2.77374 5.20073 2.97643 4.99804 2.97643 4.76641C2.97643 4.53477 2.77374 4.33208 2.54211 4.33208Z" fill="black"/>
</g>
<defs>
<clipPath id="clip0_2_1610">
<rect width="5.79097" height="5.79097" fill="white" transform="translate(0.805176 0.857483)"/>
</clipPath>
</defs>
</svg>
