<svg width="6" height="6" viewBox="0 0 6 6" fill="none" xmlns="http://www.w3.org/2000/svg">
<g clip-path="url(#clip0_2_195)">
<path d="M1.56141 1.47266H4.9142C5.2305 1.47266 5.38992 1.62195 5.38992 1.9256V4.0562C5.38992 4.35732 5.2305 4.50915 4.9142 4.50915H1.56141C1.24511 4.50915 1.08569 4.35732 1.08569 4.0562V1.9256C1.08569 1.62195 1.24511 1.47266 1.56141 1.47266ZM3.23654 3.64881L4.94204 2.24949C5.00277 2.19888 5.05084 2.08248 4.97493 1.97874C4.90155 1.87499 4.76744 1.87246 4.67887 1.93572L3.23654 2.91246L1.79674 1.93572C1.70817 1.87246 1.57406 1.87499 1.50068 1.97874C1.42477 2.08248 1.47285 2.19888 1.53358 2.24949L3.23654 3.64881Z" fill="#2F80ED"/>
</g>
<defs>
<clipPath id="clip0_2_195">
<rect width="5.06082" height="5.06082" fill="white" transform="translate(0.582275 0.460449)"/>
</clipPath>
</defs>
</svg>
