<svg width="6" height="6" viewBox="0 0 6 6" fill="none" xmlns="http://www.w3.org/2000/svg">
<g clip-path="url(#clip0_2_601)">
<path d="M3.03607 3.01583C2.90717 3.02657 2.78901 2.97286 2.6601 2.92989C1.98336 2.70431 1.29588 2.47873 0.619137 2.25315C0.576169 2.23167 0.543944 2.22092 0.511718 2.1887C0.46875 2.15647 0.46875 2.11351 0.511718 2.08128C0.543944 2.0598 0.586911 2.02757 0.629879 2.01683C1.36033 1.80199 2.08004 1.58715 2.81049 1.36157C2.97162 1.30786 3.14349 1.30786 3.31536 1.36157C4.03507 1.57641 4.75478 1.79125 5.47449 2.00609C5.51745 2.02757 5.56042 2.03831 5.60339 2.07054C5.6571 2.10276 5.6571 2.15647 5.60339 2.1887C5.57116 2.21018 5.53894 2.23167 5.49597 2.24241C4.77626 2.47873 4.05655 2.7258 3.3261 2.96212C3.22942 3.00508 3.14349 3.01583 3.03607 3.01583Z" fill="white"/>
<path d="M1.60742 3.04794C1.5 3.02646 1.47852 3.09091 1.47852 3.14462C1.47852 3.42391 1.47852 3.69246 1.47852 3.961C1.47852 4.05768 1.51074 4.11139 1.57519 4.17584C1.59668 4.19733 1.6289 4.21881 1.65039 4.24029C1.82226 4.35846 2.02635 4.43365 2.23045 4.48736C2.63864 4.59478 3.04684 4.61626 3.46577 4.56255C3.73432 4.53033 4.00287 4.45513 4.24993 4.34771C4.35735 4.294 4.46477 4.24029 4.53996 4.15436C4.59367 4.10065 4.61516 4.04694 4.60441 3.97175C4.61516 3.71394 4.61516 3.44539 4.61516 3.17684C4.61516 3.02646 4.50774 3.04794 4.46477 3.05868C4.0888 3.18759 3.69135 3.30575 3.31538 3.43465C3.12203 3.4991 2.93942 3.4991 2.7568 3.43465L1.60742 3.04794Z" fill="white"/>
<path d="M5.19531 2.80101C5.16308 2.81175 5.15234 2.82249 5.15234 2.86546C5.15234 3.11252 5.15234 3.34884 5.15234 3.59591C5.15234 3.61739 5.1416 3.64962 5.13085 3.6711C5.07715 3.8 5.02344 3.92891 4.98047 4.05781C4.9375 4.17597 4.95898 4.30488 5.04492 4.39081C5.0664 4.42304 5.10937 4.45526 5.1416 4.47675C5.17382 4.50897 5.22753 4.51971 5.2705 4.53046C5.34569 4.5412 5.41015 4.49823 5.46385 4.45526C5.48534 4.43378 5.51756 4.41229 5.53905 4.38007C5.6035 4.29413 5.61424 4.18671 5.59276 4.09004C5.56053 3.93965 5.49608 3.81075 5.43163 3.68184C5.41014 3.66036 5.41015 3.61739 5.41015 3.59591C5.41015 3.32736 5.41015 3.06955 5.41015 2.80101C5.41015 2.7473 5.36718 2.75804 5.34569 2.76878L5.19531 2.80101Z" fill="white"/>
</g>
<defs>
<clipPath id="clip0_2_601">
<rect width="5.5858" height="5.5858" fill="white" transform="translate(0.26416 0.147705)"/>
</clipPath>
</defs>
</svg>
