<svg width="6" height="6" viewBox="0 0 6 6" fill="none" xmlns="http://www.w3.org/2000/svg">
<g clip-path="url(#clip0_2_481)">
<path d="M2.94085 3.01583C2.81195 3.02657 2.69379 2.97286 2.56489 2.92989C1.88815 2.70431 1.20066 2.47873 0.523922 2.25315C0.480955 2.23167 0.448729 2.22092 0.416503 2.1887C0.373535 2.15647 0.373535 2.11351 0.416503 2.08128C0.448729 2.0598 0.491697 2.02757 0.534664 2.01683C1.26511 1.80199 1.98482 1.58715 2.71527 1.36157C2.8764 1.30786 3.04827 1.30786 3.22014 1.36157C3.93985 1.57641 4.65956 1.79125 5.37927 2.00609C5.42224 2.02757 5.46521 2.03831 5.50817 2.07054C5.56188 2.10276 5.56188 2.15647 5.50817 2.1887C5.47595 2.21018 5.44372 2.23167 5.40075 2.24241C4.68105 2.47873 3.96134 2.7258 3.23089 2.96212C3.13421 3.00508 3.04827 3.01583 2.94085 3.01583Z" fill="white"/>
<path d="M1.5122 3.04794C1.40478 3.02646 1.3833 3.09091 1.3833 3.14462C1.3833 3.42391 1.3833 3.69246 1.3833 3.961C1.3833 4.05768 1.41553 4.11139 1.47998 4.17584C1.50146 4.19733 1.53369 4.21881 1.55517 4.24029C1.72704 4.35846 1.93114 4.43365 2.13524 4.48736C2.54343 4.59478 2.95162 4.61626 3.37056 4.56255C3.6391 4.53033 3.90765 4.45513 4.15472 4.34771C4.26214 4.294 4.36955 4.24029 4.44475 4.15436C4.49846 4.10065 4.51994 4.04694 4.5092 3.97175C4.51994 3.71394 4.51994 3.44539 4.51994 3.17684C4.51994 3.02646 4.41252 3.04794 4.36955 3.05868C3.99359 3.18759 3.59614 3.30575 3.22017 3.43465C3.02681 3.4991 2.8442 3.4991 2.66159 3.43465L1.5122 3.04794Z" fill="white"/>
<path d="M5.09985 2.80101C5.06762 2.81175 5.05688 2.82249 5.05688 2.86546C5.05688 3.11252 5.05688 3.34884 5.05688 3.59591C5.05688 3.61739 5.04614 3.64962 5.0354 3.6711C4.98169 3.8 4.92798 3.92891 4.88501 4.05781C4.84204 4.17597 4.86353 4.30488 4.94946 4.39081C4.97094 4.42304 5.01391 4.45526 5.04614 4.47675C5.07836 4.50897 5.13207 4.51971 5.17504 4.53046C5.25023 4.5412 5.31469 4.49823 5.3684 4.45526C5.38988 4.43378 5.4221 4.41229 5.44359 4.38007C5.50804 4.29413 5.51878 4.18671 5.4973 4.09004C5.46507 3.93965 5.40062 3.81075 5.33617 3.68184C5.31469 3.66036 5.31469 3.61739 5.31469 3.59591C5.31469 3.32736 5.31469 3.06955 5.31469 2.80101C5.31469 2.7473 5.27172 2.75804 5.25023 2.76878L5.09985 2.80101Z" fill="white"/>
</g>
<defs>
<clipPath id="clip0_2_481">
<rect width="5.5858" height="5.5858" fill="white" transform="translate(0.169434 0.147705)"/>
</clipPath>
</defs>
</svg>
