<svg width="5" height="6" viewBox="0 0 5 6" fill="none" xmlns="http://www.w3.org/2000/svg">
<g clip-path="url(#clip0_2_1148)">
<path d="M2.31784 5.13048C3.44989 5.13048 4.3676 4.21277 4.3676 3.08071C4.3676 1.94866 3.44989 1.03094 2.31784 1.03094C1.18578 1.03094 0.268066 1.94866 0.268066 3.08071C0.268066 4.21277 1.18578 5.13048 2.31784 5.13048Z" fill="white"/>
<path d="M4.40954 3.08073C4.40954 3.03176 4.42353 2.31819 4.00378 1.85647C3.98279 1.81449 3.89884 1.6466 3.61202 1.44372C3.42313 1.29681 3.22725 1.19187 3.20626 1.17788C3.18527 1.16389 2.83548 0.981995 2.41573 0.981995C2.38075 0.981995 2.35277 0.981995 2.31779 0.98899C1.99599 0.981995 1.70216 1.06594 1.48529 1.16389C1.26143 1.26183 1.11451 1.35977 1.10052 1.37376C0.862666 1.50668 0.407939 2.03836 0.37296 2.32519C0.226048 2.50708 0.10712 3.33958 0.37296 3.84328C0.561847 4.54286 1.26143 4.89265 1.31739 4.92063C1.35237 4.94162 1.73015 5.17947 2.19886 5.17947H2.26183C2.3038 5.18647 2.33878 5.18647 2.38075 5.18647C2.88445 5.18647 3.64 4.82968 3.79391 4.54985C4.22765 4.22804 4.45151 3.41653 4.40954 3.08073M1.32439 4.1371C1.12151 3.81529 1.00958 3.38855 0.981595 3.29061C1.04456 3.19267 1.35937 2.73094 1.53426 2.59103C1.6322 2.61202 2.05895 2.68897 2.45771 2.75893C2.50668 2.89185 2.73054 3.45851 2.79351 3.68237C2.72355 3.76632 2.45071 4.08113 2.18487 4.32599C1.89804 4.33298 1.41533 4.16508 1.32439 4.1371M3.84288 1.86347C3.84288 1.89145 3.83588 2.00338 3.77991 2.1363C3.67498 2.08033 3.40914 1.9684 3.03836 1.94741C2.98239 1.86347 2.77252 1.57664 2.44372 1.38076C2.48569 1.28981 2.54865 1.18487 2.59063 1.14989C2.60462 1.14989 2.61861 1.1429 2.64659 1.1429C2.82149 1.1429 3.1293 1.26183 3.15729 1.26882C3.18527 1.28281 3.73794 1.57664 3.84288 1.86347ZM0.904641 3.22065C0.666784 3.17868 0.519872 3.10872 0.477897 3.08073C0.386952 2.75893 0.463906 2.40914 0.470901 2.36017C0.561847 2.20626 0.8067 1.8005 0.974599 1.72355C1.1425 1.68857 1.35937 1.73055 1.44332 1.75153C1.43632 1.86347 1.42233 2.17828 1.4643 2.51407C1.28241 2.66798 0.981595 3.10872 0.904641 3.22065ZM2.29681 1.08693C2.35277 1.09393 2.42973 1.10092 2.48569 1.12191C2.42973 1.19187 2.37376 1.29681 2.35277 1.35277C2.24084 1.37376 1.82809 1.45071 1.49928 1.66059C1.43632 1.6466 1.23344 1.59762 1.04456 1.61162C1.09353 1.52067 1.16349 1.45771 1.17048 1.45071C1.19147 1.42973 1.68817 1.07994 2.29681 1.08693M3.633 3.75233C3.54905 3.75233 3.23424 3.73134 2.89145 3.64739C2.82849 3.41653 2.60462 2.84987 2.55565 2.71695C2.77252 2.40914 2.98239 2.12231 3.03836 2.03836C3.43712 2.06634 3.71695 2.21326 3.77292 2.24124C4.00378 2.61202 4.05275 2.98979 4.05975 3.05275C3.93382 3.43752 3.69596 3.69636 3.633 3.75233ZM0.337981 2.83588C0.344977 2.92683 0.358969 3.01777 0.386952 3.10872C0.365964 3.17168 0.344977 3.23464 0.337981 3.2976C0.316994 3.1367 0.316994 2.9758 0.337981 2.83588ZM1.37336 4.82968L1.34538 4.87166L1.37336 4.82968C1.19846 4.74573 1.06554 4.54985 1.00958 4.4729C1.11451 4.36796 1.24744 4.27002 1.29641 4.23504C1.40834 4.27702 1.87706 4.43092 2.17788 4.43092C2.22685 4.50088 2.39475 4.71075 2.59762 4.87865C2.4717 5.00458 2.28981 5.06054 2.25483 5.07454C1.77912 5.08853 1.37336 4.82968 1.37336 4.82968M2.51367 5.06754C2.57664 5.03256 2.64659 4.98359 2.70256 4.92063C2.79351 4.90664 3.18527 4.84368 3.53506 4.58483C3.55605 4.58483 3.59802 4.59183 3.64 4.59183C3.42313 4.7947 2.90544 5.02557 2.51367 5.06754ZM3.59103 4.47989C3.71695 4.15109 3.70996 3.89924 3.70296 3.82229C3.77292 3.75233 4.01078 3.50048 4.1437 3.11571C4.21365 3.1297 4.26262 3.1437 4.28361 3.15769C4.29061 3.18567 4.3046 3.24863 4.2976 3.34657C4.24164 3.69636 4.05975 4.22804 3.73094 4.45891C3.69596 4.47989 3.64 4.48689 3.59103 4.47989Z" fill="#4A4E51"/>
</g>
<defs>
<clipPath id="clip0_2_1148">
<rect width="4.47731" height="4.47731" fill="white" transform="translate(0.0788574 0.842041)"/>
</clipPath>
</defs>
</svg>
