<svg width="5" height="5" viewBox="0 0 5 5" fill="none" xmlns="http://www.w3.org/2000/svg">
<g clip-path="url(#clip0_2_1607)">
<path d="M2.40333 4.70198C3.54923 4.70198 4.47816 3.77304 4.47816 2.62714C4.47816 1.48124 3.54923 0.552307 2.40333 0.552307C1.25743 0.552307 0.328491 1.48124 0.328491 2.62714C0.328491 3.77304 1.25743 4.70198 2.40333 4.70198Z" fill="white"/>
<path d="M4.52138 2.62715C4.52138 2.57758 4.53554 1.85529 4.11066 1.38792C4.08942 1.34543 4.00444 1.17548 3.7141 0.970116C3.52291 0.821408 3.32463 0.715187 3.30339 0.701024C3.28214 0.686862 2.92807 0.502747 2.50319 0.502747C2.46779 0.502747 2.43946 0.502747 2.40405 0.509828C2.07831 0.502747 1.7809 0.587723 1.56137 0.686862C1.33477 0.786001 1.18606 0.88514 1.1719 0.899302C0.931133 1.03385 0.470845 1.57203 0.435438 1.86237C0.286729 2.04648 0.166346 2.88916 0.435438 3.39902C0.626634 4.10716 1.33477 4.46122 1.39142 4.48955C1.42683 4.51079 1.80922 4.75156 2.28367 4.75156H2.3474C2.38989 4.75864 2.4253 4.75864 2.46779 4.75864C2.97764 4.75864 3.74243 4.39749 3.89822 4.11424C4.33726 3.78849 4.56387 2.96706 4.52138 2.62715M1.3985 3.69644C1.19314 3.37069 1.07984 2.93873 1.05152 2.83959C1.11525 2.74045 1.43391 2.27308 1.61094 2.13146C1.71008 2.1527 2.14204 2.2306 2.54568 2.30141C2.59525 2.43596 2.82185 3.00955 2.88559 3.23615C2.81477 3.32113 2.5386 3.63979 2.26951 3.88763C1.97917 3.89471 1.49056 3.72476 1.3985 3.69644M3.94779 1.395C3.94779 1.42332 3.94071 1.53662 3.88406 1.67117C3.77784 1.61452 3.50875 1.50122 3.13343 1.47997C3.07678 1.395 2.86434 1.10466 2.53152 0.906384C2.57401 0.814326 2.63774 0.708106 2.68023 0.672699C2.69439 0.672699 2.70855 0.665618 2.73688 0.665618C2.91391 0.665618 3.22549 0.786001 3.25382 0.793082C3.28214 0.807245 3.84157 1.10466 3.94779 1.395ZM0.973621 2.76878C0.732855 2.72629 0.584146 2.65548 0.541658 2.62715C0.449601 2.30141 0.527495 1.94734 0.534577 1.89777C0.626634 1.74198 0.874482 1.33126 1.04443 1.25337C1.21439 1.21796 1.43391 1.26045 1.51889 1.2817C1.5118 1.395 1.49764 1.71366 1.54013 2.05356C1.35601 2.20935 1.05152 2.65548 0.973621 2.76878ZM2.38281 0.608967C2.43946 0.616048 2.51736 0.62313 2.57401 0.644374C2.51736 0.715187 2.46071 0.821408 2.43946 0.878058C2.32616 0.899302 1.90836 0.977197 1.57554 1.18964C1.5118 1.17548 1.30644 1.12591 1.11525 1.14007C1.16482 1.04801 1.23563 0.984279 1.24271 0.977197C1.26396 0.955953 1.76673 0.601886 2.38281 0.608967M3.73535 3.30696C3.65037 3.30696 3.33171 3.28572 2.98473 3.20074C2.92099 2.96706 2.69439 2.39347 2.64482 2.25892C2.86434 1.94734 3.07678 1.65701 3.13343 1.57203C3.53707 1.60036 3.82032 1.74906 3.87698 1.77739C4.11066 2.1527 4.16023 2.5351 4.16731 2.59883C4.03985 2.9883 3.79908 3.25031 3.73535 3.30696ZM0.400031 2.37931C0.407112 2.47136 0.421275 2.56342 0.449601 2.65548C0.428357 2.71921 0.407112 2.78294 0.400031 2.84667C0.378787 2.6838 0.378787 2.52093 0.400031 2.37931ZM1.44807 4.39749L1.41975 4.43998L1.44807 4.39749C1.27104 4.31251 1.13649 4.11424 1.07984 4.03634C1.18606 3.93012 1.32061 3.83098 1.37018 3.79558C1.48348 3.83806 1.95793 3.99385 2.26243 3.99385C2.312 4.06467 2.48195 4.27711 2.68731 4.44706C2.55984 4.57452 2.37573 4.63118 2.34032 4.64534C1.85879 4.6595 1.44807 4.39749 1.44807 4.39749M2.60233 4.63826C2.66606 4.60285 2.73688 4.55328 2.79353 4.48955C2.88559 4.47539 3.28214 4.41165 3.63621 4.14964C3.65745 4.14964 3.69994 4.15672 3.74243 4.15672C3.52291 4.36208 2.99889 4.59577 2.60233 4.63826ZM3.69286 4.04342C3.82033 3.7106 3.81324 3.45567 3.80616 3.37778C3.87698 3.30696 4.11774 3.05203 4.25229 2.66256C4.3231 2.67672 4.37267 2.69088 4.39391 2.70505C4.401 2.73337 4.41516 2.79711 4.40808 2.89624C4.35143 3.25031 4.16731 3.78849 3.83449 4.02218C3.79908 4.04342 3.74243 4.0505 3.69286 4.04342Z" fill="#4A4E51"/>
</g>
<defs>
<clipPath id="clip0_2_1607">
<rect width="4.53207" height="4.53207" fill="white" transform="translate(0.137207 0.361084)"/>
</clipPath>
</defs>
</svg>
