<svg width="9" height="10" viewBox="0 0 9 10" fill="none" xmlns="http://www.w3.org/2000/svg">
<g clip-path="url(#clip0_2_354)">
<path d="M5.51673 7.53411C6.55759 7.53411 7.40138 6.68772 7.40138 5.64364C7.40138 4.59957 6.55759 3.75317 5.51673 3.75317C4.47587 3.75317 3.63208 4.59957 3.63208 5.64364C3.63208 6.68772 4.47587 7.53411 5.51673 7.53411Z" fill="#2F80ED"/>
<path d="M8.12708 2.96252C8.12897 2.95341 8.13252 2.76313 8.13252 2.76313C8.13252 2.68671 8.0709 2.62471 7.99461 2.62471H7.38276C7.31659 2.62471 7.26357 2.67279 7.25054 2.7358L7.03761 2.01704C7.00535 1.94517 6.8472 1.82852 6.75231 1.80221C6.46257 1.72187 5.98951 1.68188 5.51683 1.68188C5.0439 1.68188 4.57084 1.72187 4.28098 1.80221C4.18622 1.82852 4.02794 1.94517 3.9958 2.01704L3.73011 2.91381H3.49542V2.75275C3.49548 2.68422 3.46833 2.61847 3.41993 2.56995C3.37153 2.52143 3.30585 2.49412 3.23731 2.49402H2.09193C2.05799 2.49405 2.0244 2.50077 1.99307 2.5138C1.96173 2.52682 1.93327 2.54589 1.90932 2.56992C1.88536 2.59395 1.86637 2.62247 1.85344 2.65384C1.84051 2.68521 1.83388 2.71882 1.83395 2.75275V2.91381H1.58129C1.22501 2.91381 0.936035 3.20367 0.936035 3.56097V7.15288C0.936035 7.51005 1.22488 7.7999 1.58129 7.7999H4.03819C4.47257 8.10079 4.98856 8.26166 5.51696 8.26095C6.06593 8.26095 6.57518 8.09052 6.9956 7.7999H7.88201C8.23829 7.7999 8.52726 7.51005 8.52726 7.15288V3.56097C8.5273 3.4328 8.48928 3.30751 8.41804 3.20098C8.3468 3.09444 8.24553 3.01145 8.12708 2.96252V2.96252ZM5.51696 8.02296C4.20874 8.02296 3.14458 6.95563 3.14458 5.64349C3.14458 4.33135 4.20874 3.2639 5.51696 3.2639C6.82493 3.2639 7.88909 4.33135 7.88909 5.64349C7.88909 6.95563 6.82493 8.02296 5.51696 8.02296Z" fill="#2F80ED"/>
</g>
<defs>
<clipPath id="clip0_2_354">
<rect width="8.09731" height="8.09731" fill="white" transform="translate(0.682617 0.922852)"/>
</clipPath>
</defs>
</svg>
