<svg width="8" height="8" viewBox="0 0 8 8" fill="none" xmlns="http://www.w3.org/2000/svg">
<g clip-path="url(#clip0_2_163)">
<path d="M3.94499 5.01508V2.65185C3.94499 2.47418 3.8004 2.32959 3.62273 2.32959H1.25951C1.08184 2.32959 0.937256 2.47418 0.937256 2.65185V5.01507C0.937256 5.19274 1.08184 5.33732 1.25951 5.33732H3.62273C3.8004 5.33734 3.94499 5.19275 3.94499 5.01508ZM1.47436 2.86669H2.54854C2.60783 2.86669 2.65596 2.91481 2.65596 2.97411C2.65596 3.0334 2.60783 3.08152 2.54854 3.08152H1.47436C1.41507 3.08152 1.36694 3.0334 1.36694 2.97411C1.36694 2.91481 1.41505 2.86669 1.47436 2.86669ZM1.36693 4.26314C1.36693 4.20385 1.41505 4.15572 1.47434 4.15572H1.90403C1.96332 4.15572 2.01144 4.20385 2.01144 4.26314C2.01144 4.32243 1.96332 4.37055 1.90403 4.37055H1.47436C1.41505 4.37056 1.36693 4.32244 1.36693 4.26314ZM2.54854 4.80024H1.68919C1.6299 4.80024 1.58177 4.75211 1.58177 4.69282C1.58177 4.63353 1.6299 4.58541 1.68919 4.58541H2.54854C2.60783 4.58541 2.65596 4.63353 2.65596 4.69282C2.65596 4.75211 2.60783 4.80024 2.54854 4.80024ZM2.54854 3.94088H1.47436C1.41507 3.94088 1.36694 3.89275 1.36694 3.83346C1.36694 3.77417 1.41507 3.72605 1.47436 3.72605H2.54854C2.60783 3.72605 2.65596 3.77417 2.65596 3.83346C2.65596 3.89277 2.60783 3.94088 2.54854 3.94088ZM2.97822 3.51121H1.79661C1.73732 3.51121 1.6892 3.46308 1.6892 3.40379C1.6892 3.3445 1.73732 3.29638 1.79661 3.29638H2.97823C3.03752 3.29638 3.08564 3.3445 3.08564 3.40379C3.08564 3.46308 3.03752 3.51121 2.97822 3.51121Z" fill="white"/>
<path d="M7.05999 2.32959H4.69677C4.5191 2.32959 4.37451 2.47418 4.37451 2.65185V5.01507C4.37451 5.19274 4.5191 5.33732 4.69677 5.33732H7.05999C7.23766 5.33732 7.38225 5.19274 7.38225 5.01507V2.65184C7.38225 2.47417 7.23766 2.32959 7.05999 2.32959ZM4.9116 2.86668H5.98579C6.04508 2.86668 6.0932 2.9148 6.0932 2.97409C6.0932 3.03338 6.04508 3.08151 5.98579 3.08151H4.9116C4.85231 3.08151 4.80418 3.03338 4.80418 2.97409C4.80418 2.9148 4.85231 2.86668 4.9116 2.86668ZM4.80418 4.26312C4.80418 4.20383 4.85231 4.15571 4.9116 4.15571H5.34127C5.40056 4.15571 5.44869 4.20383 5.44869 4.26312C5.44869 4.32241 5.40056 4.37054 5.34127 4.37054H4.9116C4.85231 4.37055 4.80418 4.32243 4.80418 4.26312ZM5.9858 4.80022H5.12644C5.06715 4.80022 5.01903 4.7521 5.01903 4.69281C5.01903 4.63352 5.06715 4.58539 5.12644 4.58539H5.9858C6.04509 4.58539 6.09322 4.63352 6.09322 4.69281C6.09322 4.7521 6.04509 4.80022 5.9858 4.80022ZM5.9858 3.94087H4.91161C4.85232 3.94087 4.8042 3.89274 4.8042 3.83345C4.8042 3.77416 4.85232 3.72604 4.91161 3.72604H5.9858C6.04509 3.72604 6.09322 3.77416 6.09322 3.83345C6.09322 3.89275 6.04509 3.94087 5.9858 3.94087ZM6.41547 3.51119H5.23386C5.17457 3.51119 5.12644 3.46307 5.12644 3.40378C5.12644 3.34449 5.17457 3.29636 5.23386 3.29636H6.41547C6.47476 3.29636 6.52289 3.34449 6.52289 3.40378C6.52289 3.46307 6.47476 3.51119 6.41547 3.51119Z" fill="white"/>
<path d="M2.48789 1.78155C3.09277 1.48422 3.57701 1.36295 4.15923 1.36295C4.66119 1.36295 5.09077 1.45382 5.58716 1.66931L5.12353 1.82463C5.06735 1.84343 5.03695 1.90434 5.05586 1.96062C5.0709 2.00552 5.11279 2.03399 5.1577 2.03399C5.16898 2.03399 5.18047 2.03216 5.19186 2.0283L5.91199 1.78703C5.91382 1.78639 5.9151 1.78499 5.91683 1.78424C5.9266 1.78047 5.93552 1.77521 5.94379 1.76866C5.94647 1.76662 5.94917 1.76469 5.95163 1.76233C5.96012 1.75416 5.96775 1.74504 5.97334 1.73397C5.97355 1.73354 5.97388 1.73322 5.97409 1.7329C5.97419 1.73279 5.9743 1.73269 5.9743 1.73257C5.9758 1.72957 5.97559 1.72634 5.97677 1.72333C5.98064 1.71334 5.98419 1.70314 5.98493 1.69229C5.98568 1.68091 5.98353 1.66985 5.98074 1.65888C5.9801 1.6563 5.98062 1.65362 5.97977 1.65104L5.97955 1.6505L5.7384 0.930795C5.71961 0.874613 5.65881 0.843999 5.60241 0.86312C5.54623 0.881915 5.51583 0.942829 5.53474 0.999111L5.69651 1.48207C5.16167 1.24649 4.70116 1.1481 4.15923 1.1481C3.54146 1.1481 3.02983 1.27572 2.39304 1.58874C2.33987 1.61495 2.31785 1.6793 2.34406 1.73257C2.37027 1.78575 2.43451 1.80776 2.48789 1.78155Z" fill="white"/>
<path d="M5.83067 5.88859C5.2258 6.18592 4.74155 6.3072 4.15934 6.3072C3.65737 6.3072 3.2278 6.21632 2.73141 6.00084L3.19503 5.84551C3.25121 5.82672 3.28161 5.7658 3.26271 5.70952C3.24391 5.65334 3.18321 5.62294 3.12672 5.64185L2.40658 5.88311C2.40637 5.88322 2.40626 5.88333 2.40616 5.88333C2.39294 5.88783 2.3807 5.89482 2.37007 5.90416C2.35933 5.9135 2.35073 5.92478 2.3445 5.93735C2.34439 5.93745 2.34429 5.93745 2.34429 5.93745C2.34279 5.94056 2.343 5.94369 2.34182 5.94669C2.33795 5.95679 2.3344 5.96689 2.33365 5.97785C2.33289 5.98924 2.33505 6.00019 2.33784 6.01115C2.33848 6.01383 2.33795 6.01652 2.33881 6.01909L2.33902 6.01963L2.58018 6.73933C2.59522 6.78424 2.63711 6.8127 2.68201 6.8127C2.69329 6.8127 2.70479 6.81076 2.71618 6.80701C2.77236 6.78821 2.80276 6.7273 2.78385 6.67102L2.62208 6.18806C3.15692 6.42364 3.61743 6.52202 4.15936 6.52202C4.77713 6.52202 5.28876 6.39441 5.92555 6.08139C5.97872 6.05518 6.00074 5.99083 5.97453 5.93756C5.9483 5.8844 5.88406 5.86228 5.83067 5.88859Z" fill="white"/>
</g>
<defs>
<clipPath id="clip0_2_163">
<rect width="6.44515" height="6.44515" fill="white" transform="translate(0.937256 0.612305)"/>
</clipPath>
</defs>
</svg>
