<svg width="6" height="6" viewBox="0 0 6 6" fill="none" xmlns="http://www.w3.org/2000/svg">
<g clip-path="url(#clip0_2_1579)">
<path d="M3.91407 3.79001C3.91407 3.68323 3.90892 3.58301 3.89861 3.48934C3.88831 3.39567 3.86864 3.30153 3.8396 3.20693C3.81056 3.11232 3.77356 3.03176 3.7286 2.96526C3.68364 2.89876 3.62369 2.84443 3.54876 2.80228C3.47382 2.76013 3.38859 2.73905 3.29304 2.73905C3.2818 2.74654 3.25043 2.76575 3.19891 2.79666C3.14739 2.82757 3.10758 2.85052 3.07948 2.8655C3.05138 2.88049 3.01344 2.89922 2.96567 2.9217C2.9179 2.94418 2.872 2.96011 2.82798 2.96948C2.78395 2.97884 2.7404 2.98353 2.69731 2.98353C2.65422 2.98353 2.61067 2.97884 2.56664 2.96948C2.52262 2.96011 2.47672 2.94418 2.42895 2.9217C2.38118 2.89922 2.34324 2.88049 2.31514 2.8655C2.28704 2.85052 2.24723 2.82757 2.19572 2.79666C2.1442 2.76575 2.11282 2.74654 2.10158 2.73905C2.00604 2.73905 1.9208 2.76013 1.84586 2.80228C1.77093 2.84443 1.71098 2.89876 1.66602 2.96526C1.62106 3.03176 1.58406 3.11232 1.55502 3.20693C1.52598 3.30153 1.50631 3.39567 1.49601 3.48934C1.48571 3.58301 1.48055 3.68323 1.48055 3.79001C1.48055 3.92677 1.5199 4.04058 1.59858 4.13144C1.67726 4.22229 1.77374 4.26772 1.88801 4.26772H3.50661C3.62088 4.26772 3.71736 4.22229 3.79605 4.13144C3.87473 4.04058 3.91407 3.92677 3.91407 3.79001ZM3.42793 2.12084C3.42793 1.91851 3.35627 1.74616 3.21296 1.60379C3.06964 1.46141 2.89776 1.39022 2.69731 1.39022C2.49686 1.39022 2.32498 1.46141 2.18167 1.60379C2.03835 1.74616 1.9667 1.91851 1.9667 2.12084C1.9667 2.32129 2.03835 2.4927 2.18167 2.63508C2.32498 2.77745 2.49686 2.84864 2.69731 2.84864C2.89776 2.84864 3.06964 2.77745 3.21296 2.63508C3.35627 2.4927 3.42793 2.32129 3.42793 2.12084ZM5.21513 3.63827V4.1778C5.21513 4.20403 5.2067 4.22557 5.18984 4.24243C5.17298 4.25929 5.15143 4.26772 5.1252 4.26772H4.85544V4.89718C4.85544 5.02082 4.81141 5.12667 4.72337 5.21471C4.63532 5.30276 4.52947 5.34679 4.40583 5.34679H0.988794C0.865152 5.34679 0.759306 5.30276 0.671257 5.21471C0.583209 5.12667 0.539185 5.02082 0.539185 4.89718V0.760767C0.539185 0.637124 0.583209 0.531279 0.671257 0.44323C0.759306 0.355182 0.865152 0.311157 0.988794 0.311157H4.40583C4.52947 0.311157 4.63532 0.355182 4.72337 0.44323C4.81141 0.531279 4.85544 0.637124 4.85544 0.760767V1.39022H5.1252C5.15143 1.39022 5.17298 1.39865 5.18984 1.41551C5.2067 1.43237 5.21513 1.45392 5.21513 1.48014V2.01967C5.21513 2.0459 5.2067 2.06745 5.18984 2.08431C5.17298 2.10117 5.15143 2.1096 5.1252 2.1096H4.85544V2.46928H5.1252C5.15143 2.46928 5.17298 2.47771 5.18984 2.49457C5.2067 2.51144 5.21513 2.53298 5.21513 2.55921V3.09874C5.21513 3.12497 5.2067 3.14651 5.18984 3.16337C5.17298 3.18023 5.15143 3.18866 5.1252 3.18866H4.85544V3.54835H5.1252C5.15143 3.54835 5.17298 3.55678 5.18984 3.57364C5.2067 3.5905 5.21513 3.61204 5.21513 3.63827Z" fill="white"/>
</g>
<defs>
<clipPath id="clip0_2_1579">
<rect width="4.67594" height="5.03563" fill="white" transform="translate(0.539185 0.311157)"/>
</clipPath>
</defs>
</svg>
