<svg width="6" height="7" viewBox="0 0 6 7" fill="none" xmlns="http://www.w3.org/2000/svg">
<g clip-path="url(#clip0_2_202)">
<path d="M2.68932 3.93989C2.68932 4.15786 2.5312 4.22676 2.33695 4.22676H1.82759V3.62931H2.34711C2.55718 3.63044 2.68932 3.7174 2.68932 3.93989V3.93989ZM2.60235 3.0104C2.60235 2.8105 2.44763 2.76307 2.27596 2.76307H1.82872V3.26903H2.31097C2.48151 3.26903 2.60235 3.1945 2.60235 3.0104V3.0104ZM4.09654 3.27242C3.88986 3.27242 3.75207 3.40117 3.73852 3.60785H4.441C4.4218 3.39891 4.31338 3.27242 4.09654 3.27242ZM5.64267 1.53429V5.50974C5.64267 5.80903 5.39985 6.05185 5.10056 6.05185H1.12511C0.825826 6.05185 0.583008 5.80903 0.583008 5.50974V1.53429C0.583008 1.23501 0.825826 0.992188 1.12511 0.992188H5.10056C5.39985 0.992188 5.64267 1.23501 5.64267 1.53429ZM3.65156 2.72015H4.53022V2.5067H3.65156V2.72015ZM3.16592 3.96587C3.16592 3.69368 3.03717 3.45877 2.77063 3.3831C2.96489 3.29049 3.06653 3.1832 3.06653 2.96523C3.06653 2.5338 2.74466 2.42877 2.37309 2.42877H1.35099V4.5972H2.40245C2.79661 4.59494 3.16592 4.40633 3.16592 3.96587V3.96587ZM4.87468 3.79872C4.87468 3.33454 4.6025 2.94716 4.11122 2.94716C3.63236 2.94716 3.30822 3.3063 3.30822 3.77839C3.30822 4.26741 3.61655 4.60284 4.11122 4.60284C4.48617 4.60284 4.72899 4.43456 4.84645 4.07429H4.46585C4.42406 4.20869 4.25578 4.27871 4.12477 4.27871C3.87179 4.27871 3.73965 4.13076 3.73965 3.88003H4.8713C4.87243 3.85406 4.87468 3.82582 4.87468 3.79872Z" fill="#2F80ED"/>
</g>
<defs>
<clipPath id="clip0_2_202">
<rect width="5.06082" height="5.78247" fill="white" transform="translate(0.582275 0.630859)"/>
</clipPath>
</defs>
</svg>
