<svg width="9" height="9" viewBox="0 0 9 9" fill="none" xmlns="http://www.w3.org/2000/svg">
<g clip-path="url(#clip0_2_327)">
<path d="M7.99602 6.97847L6.14408 5.12653C5.77875 4.7612 5.23313 4.69004 4.79348 4.9067L3.10759 3.22082V2.2387L1.08327 0.720459L0.0711032 1.73262L1.58935 3.75695H2.57146L4.25735 5.44283C4.04226 5.88249 4.11185 6.42811 4.47718 6.79344L6.32912 8.64538C6.56002 8.87628 6.93325 8.87628 7.16257 8.64538L7.99602 7.81193C8.22534 7.58103 8.22534 7.20779 7.99602 6.97847V6.97847ZM5.31695 4.27885C5.76452 4.27885 6.1852 4.45281 6.5015 4.76911L6.80831 5.07592C7.05819 4.9668 7.29542 4.81498 7.50101 4.60938C8.08775 4.02264 8.28702 3.1971 8.1004 2.44746C8.06561 2.30513 7.8869 2.2561 7.78252 2.36048L6.60588 3.53712L5.53204 3.35841L5.35333 2.28457L6.52997 1.10793C6.63435 1.00355 6.58374 0.824838 6.43982 0.788464C5.69019 0.603428 4.86464 0.802697 4.27949 1.38785C3.82876 1.83858 3.61684 2.43323 3.62791 3.02629L4.92632 4.32471C5.05442 4.29466 5.18727 4.27885 5.31695 4.27885ZM3.67377 5.57568L2.77706 4.67897L0.366845 7.09076C-0.0285315 7.48614 -0.0285315 8.12665 0.366845 8.52202C0.762221 8.9174 1.40273 8.9174 1.79811 8.52202L3.75285 6.56728C3.63265 6.25256 3.59628 5.90938 3.67377 5.57568V5.57568ZM1.08327 8.18516C0.874508 8.18516 0.703705 8.01436 0.703705 7.8056C0.703705 7.59526 0.872926 7.42604 1.08327 7.42604C1.29361 7.42604 1.46283 7.59526 1.46283 7.8056C1.46283 8.01436 1.29361 8.18516 1.08327 8.18516Z" fill="#2F80ED"/>
</g>
<defs>
<clipPath id="clip0_2_327">
<rect width="8.09731" height="8.09731" fill="white" transform="translate(0.0710449 0.720459)"/>
</clipPath>
</defs>
</svg>
