<svg width="9" height="8" viewBox="0 0 9 8" fill="none" xmlns="http://www.w3.org/2000/svg">
<g clip-path="url(#clip0_2_127)">
<path d="M8.39736 1.86985V1.62354H7.33826V1.86985H7.74466V6.0147H7.33826V6.26101H8.39736V6.0147H7.99097V1.86985H8.39736Z" fill="#F4F4F4"/>
<path d="M0.923872 5.2586L2.16345 2.45933C2.24987 2.2663 2.40731 2.14941 2.62074 2.14941H2.66646C2.87977 2.14941 3.03223 2.26628 3.11856 2.45933L4.35818 5.2586C4.38359 5.31449 4.39886 5.36527 4.39886 5.4161C4.39886 5.62438 4.23628 5.79203 4.02797 5.79203C3.84509 5.79203 3.72314 5.68536 3.65204 5.52275L3.41329 4.96396H1.84854L1.5996 5.5482C1.53354 5.70059 1.40148 5.79203 1.2389 5.79203C1.03561 5.79203 0.878174 5.62947 0.878174 5.42625C0.878174 5.37036 0.898469 5.31449 0.923872 5.2586ZM3.12369 4.27302L2.63087 3.09946L2.13809 4.27302H3.12369Z" fill="white"/>
<path d="M4.76965 4.97923V4.96906C4.76965 4.37467 5.22182 4.10033 5.86701 4.10033C6.14138 4.10033 6.33953 4.14605 6.53259 4.21211V4.16639C6.53259 3.8463 6.33443 3.66853 5.94832 3.66853C5.73496 3.66853 5.56222 3.69899 5.41489 3.74473C5.36919 3.75997 5.33868 3.76503 5.30307 3.76503C5.12531 3.76503 4.98307 3.62787 4.98307 3.45007C4.98307 3.31289 5.0694 3.19605 5.19131 3.1503C5.43516 3.05886 5.69938 3.00806 6.06008 3.00806C6.48171 3.00806 6.78657 3.11981 6.97964 3.31287C7.18284 3.51607 7.27428 3.81583 7.27428 4.18162V5.4212C7.27428 5.62953 7.10663 5.79207 6.89833 5.79207C6.67479 5.79207 6.52748 5.63459 6.52748 5.472V5.46692C6.33951 5.6752 6.08036 5.81236 5.70447 5.81236C5.19131 5.81241 4.76965 5.51779 4.76965 4.97923ZM6.54269 4.80141V4.66425C6.41061 4.6033 6.23788 4.56264 6.04991 4.56264C5.71966 4.56264 5.51648 4.69474 5.51648 4.93857V4.94874C5.51648 5.15705 5.68921 5.27895 5.93813 5.27895C6.29883 5.27898 6.54269 5.08086 6.54269 4.80141Z" fill="white"/>
</g>
<defs>
<clipPath id="clip0_2_127">
<rect width="7.51934" height="7.51934" fill="white" transform="translate(0.878174 0.182617)"/>
</clipPath>
</defs>
</svg>
