<svg width="22" height="16" viewBox="0 0 22 16" fill="none" xmlns="http://www.w3.org/2000/svg">
<ellipse cx="1.09199" cy="1.2009" rx="0.537096" ry="0.563884" transform="rotate(-0.745038 1.09199 1.2009)" fill="#EB00FF"/>
<ellipse cx="1.21406" cy="10.6067" rx="0.537096" ry="0.563884" transform="rotate(-0.745038 1.21406 10.6067)" fill="#EB00FF"/>
<ellipse cx="9.12397" cy="1.0964" rx="0.537096" ry="0.563884" transform="rotate(-0.745038 9.12397 1.0964)" fill="#EB00FF"/>
<ellipse cx="9.2458" cy="10.5022" rx="0.537096" ry="0.563884" transform="rotate(-0.745038 9.2458 10.5022)" fill="#EB00FF"/>
<ellipse cx="17.156" cy="0.991912" rx="0.537096" ry="0.563884" transform="rotate(-0.745038 17.156 0.991912)" fill="#EB00FF"/>
<ellipse cx="17.278" cy="10.3977" rx="0.537096" ry="0.563884" transform="rotate(-0.745038 17.278 10.3977)" fill="#EB00FF"/>
<ellipse cx="1.15303" cy="5.90378" rx="0.537096" ry="0.563884" transform="rotate(-0.745038 1.15303 5.90378)" fill="#EB00FF"/>
<ellipse cx="1.27534" cy="15.3095" rx="0.537096" ry="0.563884" transform="rotate(-0.745038 1.27534 15.3095)" fill="#EB00FF"/>
<ellipse cx="9.1855" cy="5.79928" rx="0.537096" ry="0.563884" transform="rotate(-0.745038 9.1855 5.79928)" fill="#EB00FF"/>
<ellipse cx="9.30757" cy="15.205" rx="0.537096" ry="0.563884" transform="rotate(-0.745038 9.30757 15.205)" fill="#EB00FF"/>
<ellipse cx="17.2172" cy="5.69479" rx="0.537096" ry="0.563884" transform="rotate(-0.745038 17.2172 5.69479)" fill="#EB00FF"/>
<ellipse cx="17.3395" cy="15.1006" rx="0.537096" ry="0.563884" transform="rotate(-0.745038 17.3395 15.1006)" fill="#EB00FF"/>
<ellipse cx="5.1081" cy="1.14865" rx="0.537096" ry="0.563884" transform="rotate(-0.745038 5.1081 1.14865)" fill="#EB00FF"/>
<ellipse cx="5.22993" cy="10.5544" rx="0.537096" ry="0.563884" transform="rotate(-0.745038 5.22993 10.5544)" fill="#EB00FF"/>
<ellipse cx="13.1401" cy="1.04416" rx="0.537096" ry="0.563884" transform="rotate(-0.745038 13.1401 1.04416)" fill="#EB00FF"/>
<ellipse cx="13.2622" cy="10.4502" rx="0.537096" ry="0.563884" transform="rotate(-0.745038 13.2622 10.4502)" fill="#EB00FF"/>
<ellipse cx="21.1723" cy="0.93991" rx="0.537096" ry="0.563884" transform="rotate(-0.745038 21.1723 0.93991)" fill="#EB00FF"/>
<ellipse cx="21.2946" cy="10.3457" rx="0.537096" ry="0.563884" transform="rotate(-0.745038 21.2946 10.3457)" fill="#EB00FF"/>
<ellipse cx="5.16889" cy="5.85153" rx="0.537096" ry="0.563884" transform="rotate(-0.745038 5.16889 5.85153)" fill="#EB00FF"/>
<ellipse cx="5.29121" cy="15.2573" rx="0.537096" ry="0.563884" transform="rotate(-0.745038 5.29121 15.2573)" fill="#EB00FF"/>
<ellipse cx="13.2014" cy="5.74704" rx="0.537096" ry="0.563884" transform="rotate(-0.745038 13.2014 5.74704)" fill="#EB00FF"/>
<ellipse cx="13.3237" cy="15.1528" rx="0.537096" ry="0.563884" transform="rotate(-0.745038 13.3237 15.1528)" fill="#EB00FF"/>
<ellipse cx="21.2336" cy="5.64255" rx="0.537096" ry="0.563884" transform="rotate(-0.745038 21.2336 5.64255)" fill="#EB00FF"/>
<ellipse cx="21.3559" cy="15.0483" rx="0.537096" ry="0.563884" transform="rotate(-0.745038 21.3559 15.0483)" fill="#EB00FF"/>
</svg>
