<svg width="88" height="63" viewBox="0 0 88 63" fill="none" xmlns="http://www.w3.org/2000/svg">
<ellipse cx="2.74825" cy="3.42632" rx="2.17889" ry="2.28757" transform="rotate(-0.745038 2.74825 3.42632)" fill="#EB00FF"/>
<ellipse cx="3.2441" cy="41.5834" rx="2.17889" ry="2.28757" transform="rotate(-0.745038 3.2441 41.5834)" fill="#EB00FF"/>
<ellipse cx="35.3328" cy="3.00233" rx="2.17889" ry="2.28757" transform="rotate(-0.745038 35.3328 3.00233)" fill="#EB00FF"/>
<ellipse cx="35.8284" cy="41.1597" rx="2.17889" ry="2.28757" transform="rotate(-0.745038 35.8284 41.1597)" fill="#EB00FF"/>
<ellipse cx="67.9177" cy="2.57855" rx="2.17889" ry="2.28757" transform="rotate(-0.745038 67.9177 2.57855)" fill="#EB00FF"/>
<ellipse cx="68.4144" cy="40.7359" rx="2.17889" ry="2.28757" transform="rotate(-0.745038 68.4144 40.7359)" fill="#EB00FF"/>
<ellipse cx="2.99593" cy="22.5047" rx="2.17889" ry="2.28757" transform="rotate(-0.745038 2.99593 22.5047)" fill="#EB00FF"/>
<ellipse cx="3.49263" cy="60.6617" rx="2.17889" ry="2.28757" transform="rotate(-0.745038 3.49263 60.6617)" fill="#EB00FF"/>
<ellipse cx="35.5809" cy="22.0809" rx="2.17889" ry="2.28757" transform="rotate(-0.745038 35.5809 22.0809)" fill="#EB00FF"/>
<ellipse cx="36.0776" cy="60.2381" rx="2.17889" ry="2.28757" transform="rotate(-0.745038 36.0776 60.2381)" fill="#EB00FF"/>
<ellipse cx="68.1658" cy="21.6571" rx="2.17889" ry="2.28757" transform="rotate(-0.745038 68.1658 21.6571)" fill="#EB00FF"/>
<ellipse cx="68.6621" cy="59.8144" rx="2.17889" ry="2.28757" transform="rotate(-0.745038 68.6621 59.8144)" fill="#EB00FF"/>
<ellipse cx="19.0401" cy="3.21436" rx="2.17889" ry="2.28757" transform="rotate(-0.745038 19.0401 3.21436)" fill="#EB00FF"/>
<ellipse cx="19.5363" cy="41.3715" rx="2.17889" ry="2.28757" transform="rotate(-0.745038 19.5363 41.3715)" fill="#EB00FF"/>
<ellipse cx="51.6251" cy="2.79047" rx="2.17889" ry="2.28757" transform="rotate(-0.745038 51.6251 2.79047)" fill="#EB00FF"/>
<ellipse cx="52.1212" cy="40.9477" rx="2.17889" ry="2.28757" transform="rotate(-0.745038 52.1212 40.9477)" fill="#EB00FF"/>
<ellipse cx="84.2099" cy="2.36664" rx="2.17889" ry="2.28757" transform="rotate(-0.745038 84.2099 2.36664)" fill="#EB00FF"/>
<ellipse cx="84.7066" cy="40.5241" rx="2.17889" ry="2.28757" transform="rotate(-0.745038 84.7066 40.5241)" fill="#EB00FF"/>
<ellipse cx="19.2887" cy="22.2928" rx="2.17889" ry="2.28757" transform="rotate(-0.745038 19.2887 22.2928)" fill="#EB00FF"/>
<ellipse cx="19.7849" cy="60.4499" rx="2.17889" ry="2.28757" transform="rotate(-0.745038 19.7849 60.4499)" fill="#EB00FF"/>
<ellipse cx="51.8731" cy="21.869" rx="2.17889" ry="2.28757" transform="rotate(-0.745038 51.8731 21.869)" fill="#EB00FF"/>
<ellipse cx="52.3698" cy="60.0261" rx="2.17889" ry="2.28757" transform="rotate(-0.745038 52.3698 60.0261)" fill="#EB00FF"/>
<ellipse cx="84.4586" cy="21.4453" rx="2.17889" ry="2.28757" transform="rotate(-0.745038 84.4586 21.4453)" fill="#EB00FF"/>
<ellipse cx="84.9543" cy="59.6024" rx="2.17889" ry="2.28757" transform="rotate(-0.745038 84.9543 59.6024)" fill="#EB00FF"/>
</svg>
