<svg width="22" height="16" viewBox="0 0 22 16" fill="none" xmlns="http://www.w3.org/2000/svg">
<ellipse cx="0.575914" cy="1.23576" rx="0.537096" ry="0.563884" fill="#FF5C00"/>
<ellipse cx="0.576158" cy="10.6423" rx="0.537096" ry="0.563884" fill="#FF5C00"/>
<ellipse cx="8.60863" cy="1.23576" rx="0.537096" ry="0.563884" fill="#FF5C00"/>
<ellipse cx="8.60863" cy="10.6423" rx="0.537096" ry="0.563884" fill="#FF5C00"/>
<ellipse cx="16.6416" cy="1.23576" rx="0.537096" ry="0.563884" fill="#FF5C00"/>
<ellipse cx="16.6416" cy="10.6423" rx="0.537096" ry="0.563884" fill="#FF5C00"/>
<ellipse cx="0.576158" cy="5.93888" rx="0.537096" ry="0.563884" fill="#FF5C00"/>
<ellipse cx="0.576158" cy="15.3454" rx="0.537096" ry="0.563884" fill="#FF5C00"/>
<ellipse cx="8.60863" cy="5.93888" rx="0.537096" ry="0.563884" fill="#FF5C00"/>
<ellipse cx="8.60863" cy="15.3454" rx="0.537096" ry="0.563884" fill="#FF5C00"/>
<ellipse cx="16.6416" cy="5.93888" rx="0.537096" ry="0.563884" fill="#FF5C00"/>
<ellipse cx="16.6416" cy="15.3454" rx="0.537096" ry="0.563884" fill="#FF5C00"/>
<ellipse cx="4.59239" cy="1.23576" rx="0.537096" ry="0.563884" fill="#FF5C00"/>
<ellipse cx="4.59239" cy="10.6423" rx="0.537096" ry="0.563884" fill="#FF5C00"/>
<ellipse cx="12.6254" cy="1.23576" rx="0.537096" ry="0.563884" fill="#FF5C00"/>
<ellipse cx="12.6254" cy="10.6423" rx="0.537096" ry="0.563884" fill="#FF5C00"/>
<ellipse cx="20.6579" cy="1.23576" rx="0.537096" ry="0.563884" fill="#FF5C00"/>
<ellipse cx="20.6579" cy="10.6423" rx="0.537096" ry="0.563884" fill="#FF5C00"/>
<ellipse cx="4.59239" cy="5.93888" rx="0.537096" ry="0.563884" fill="#FF5C00"/>
<ellipse cx="4.59239" cy="15.3454" rx="0.537096" ry="0.563884" fill="#FF5C00"/>
<ellipse cx="12.6254" cy="5.93888" rx="0.537096" ry="0.563884" fill="#FF5C00"/>
<ellipse cx="12.6254" cy="15.3454" rx="0.537096" ry="0.563884" fill="#FF5C00"/>
<ellipse cx="20.6579" cy="5.93888" rx="0.537096" ry="0.563884" fill="#FF5C00"/>
<ellipse cx="20.6579" cy="15.3454" rx="0.537096" ry="0.563884" fill="#FF5C00"/>
</svg>
