<svg width="86" height="63" viewBox="0 0 86 63" fill="none" xmlns="http://www.w3.org/2000/svg">
<ellipse cx="2.17877" cy="3.19272" rx="2.17889" ry="2.28757" fill="#FF5C00"/>
<ellipse cx="2.17865" cy="41.3533" rx="2.17889" ry="2.28757" fill="#FF5C00"/>
<ellipse cx="34.7665" cy="3.19269" rx="2.17889" ry="2.28757" fill="#FF5C00"/>
<ellipse cx="34.7665" cy="41.3533" rx="2.17889" ry="2.28757" fill="#FF5C00"/>
<ellipse cx="67.3538" cy="3.19269" rx="2.17889" ry="2.28757" fill="#FF5C00"/>
<ellipse cx="67.3538" cy="41.3533" rx="2.17889" ry="2.28757" fill="#FF5C00"/>
<ellipse cx="2.17865" cy="22.2729" rx="2.17889" ry="2.28757" fill="#FF5C00"/>
<ellipse cx="2.17865" cy="60.4332" rx="2.17889" ry="2.28757" fill="#FF5C00"/>
<ellipse cx="34.7665" cy="22.2729" rx="2.17889" ry="2.28757" fill="#FF5C00"/>
<ellipse cx="34.7665" cy="60.4332" rx="2.17889" ry="2.28757" fill="#FF5C00"/>
<ellipse cx="67.3538" cy="22.2729" rx="2.17889" ry="2.28757" fill="#FF5C00"/>
<ellipse cx="67.3538" cy="60.4332" rx="2.17889" ry="2.28757" fill="#FF5C00"/>
<ellipse cx="18.4723" cy="3.19269" rx="2.17889" ry="2.28757" fill="#FF5C00"/>
<ellipse cx="18.4723" cy="41.3533" rx="2.17889" ry="2.28757" fill="#FF5C00"/>
<ellipse cx="51.0602" cy="3.19269" rx="2.17889" ry="2.28757" fill="#FF5C00"/>
<ellipse cx="51.0602" cy="41.3533" rx="2.17889" ry="2.28757" fill="#FF5C00"/>
<ellipse cx="83.6475" cy="3.19269" rx="2.17889" ry="2.28757" fill="#FF5C00"/>
<ellipse cx="83.6475" cy="41.3533" rx="2.17889" ry="2.28757" fill="#FF5C00"/>
<ellipse cx="18.4723" cy="22.2729" rx="2.17889" ry="2.28757" fill="#FF5C00"/>
<ellipse cx="18.4723" cy="60.4332" rx="2.17889" ry="2.28757" fill="#FF5C00"/>
<ellipse cx="51.0602" cy="22.2729" rx="2.17889" ry="2.28757" fill="#FF5C00"/>
<ellipse cx="51.0602" cy="60.4332" rx="2.17889" ry="2.28757" fill="#FF5C00"/>
<ellipse cx="83.6475" cy="22.2729" rx="2.17889" ry="2.28757" fill="#FF5C00"/>
<ellipse cx="83.6475" cy="60.4332" rx="2.17889" ry="2.28757" fill="#FF5C00"/>
</svg>
