<svg width="9" height="10" viewBox="0 0 9 10" fill="none" xmlns="http://www.w3.org/2000/svg">
<path d="M7.07591 1.59766H3.02726C2.65613 1.59766 2.35248 1.90131 2.35248 2.27243V6.32109C2.35248 6.69221 2.65613 6.99586 3.02726 6.99586H7.07591C7.44704 6.99586 7.75069 6.69221 7.75069 6.32109V2.27243C7.75069 1.90131 7.44704 1.59766 7.07591 1.59766ZM6.40113 3.2846H5.38897V5.14023C5.38897 5.36393 5.30011 5.57847 5.14192 5.73665C4.98374 5.89483 4.7692 5.9837 4.5455 5.9837C4.3218 5.9837 4.10726 5.89483 3.94908 5.73665C3.7909 5.57847 3.70203 5.36393 3.70203 5.14023C3.70203 4.91653 3.7909 4.70199 3.94908 4.54381C4.10726 4.38562 4.3218 4.29676 4.5455 4.29676C4.73781 4.29676 4.90988 4.36086 5.05158 4.46883V2.60982H6.40113V3.2846ZM1.67771 2.94721H1.00293V7.67064C1.00293 8.04176 1.30658 8.34541 1.67771 8.34541H6.40113V7.67064H1.67771V2.94721Z" fill="#2F80ED"/>
</svg>
