<svg width="11" height="11" viewBox="0 0 11 11" fill="none" xmlns="http://www.w3.org/2000/svg">
<path d="M4.2592 1.8291V4.35951H5.2081V4.99211H2.04509V6.25732H1.09619V8.78772H3.6266V6.25732H2.6777V5.62471H5.2081V6.25732H4.2592V8.78772H6.78961V6.25732H5.84071V5.62471H8.37111V6.25732H7.42221V8.78772H9.95262V6.25732H9.00372V4.99211H5.84071V4.35951H6.78961V1.8291H4.2592ZM4.8918 2.4617H6.15701V3.72691H4.8918V2.4617ZM1.72879 6.88992H2.994V8.15512H1.72879V6.88992ZM4.8918 6.88992H6.15701V8.15512H4.8918V6.88992ZM8.05481 6.88992H9.32002V8.15512H8.05481V6.88992Z" fill="#2F80ED"/>
</svg>
