<svg width="9" height="10" viewBox="0 0 9 10" fill="none" xmlns="http://www.w3.org/2000/svg">
<g clip-path="url(#clip0_2_372)">
<path d="M7.59446 6.65847C7.77342 6.65847 7.94505 6.58738 8.0716 6.46084C8.19814 6.33429 8.26923 6.16266 8.26923 5.9837V2.27243C8.26923 2.09347 8.19814 1.92184 8.0716 1.79529C7.94505 1.66875 7.77342 1.59766 7.59446 1.59766H4.03839C4.15648 1.80346 4.22058 2.03626 4.22058 2.27243H7.59446V5.9837H4.55797V6.65847H7.59446ZM5.90752 3.28459V3.95937H3.88319V8.34541H3.20842V6.32108H2.53364V8.34541H1.85886V5.64631H1.35278V3.95937C1.35278 3.78041 1.42388 3.60878 1.55042 3.48223C1.67697 3.35569 1.8486 3.28459 2.02756 3.28459H5.90752ZM3.5458 2.27243C3.5458 2.45139 3.47471 2.62303 3.34817 2.74957C3.22162 2.87612 3.04999 2.94721 2.87103 2.94721C2.69207 2.94721 2.52043 2.87612 2.39389 2.74957C2.26734 2.62303 2.19625 2.45139 2.19625 2.27243C2.19625 2.09347 2.26734 1.92184 2.39389 1.79529C2.52043 1.66875 2.69207 1.59766 2.87103 1.59766C3.04999 1.59766 3.22162 1.66875 3.34817 1.79529C3.47471 1.92184 3.5458 2.09347 3.5458 2.27243Z" fill="#2F80ED"/>
</g>
<defs>
<clipPath id="clip0_2_372">
<rect width="8.09731" height="8.09731" fill="white" transform="translate(0.846924 0.922852)"/>
</clipPath>
</defs>
</svg>
