<svg width="4" height="3" viewBox="0 0 4 3" fill="none" xmlns="http://www.w3.org/2000/svg">
<path d="M3.02496 1.21963C3.02496 1.24297 3.02496 1.26631 3.02496 1.28632C3.02496 1.97659 2.49939 2.77356 1.5414 2.77356C1.24535 2.77356 0.972592 2.68686 0.739746 2.54014C0.779662 2.54347 0.822905 2.54681 0.862822 2.54681C1.10565 2.54681 1.33184 2.46344 1.51146 2.32339C1.28194 2.32005 1.08901 2.16666 1.02581 1.95991C1.05908 1.96658 1.08901 1.96992 1.1256 1.96992C1.17217 1.96992 1.21874 1.96325 1.26199 1.94991C1.02249 1.90323 0.842863 1.69314 0.842863 1.43971C0.842863 1.43638 0.842863 1.43638 0.842863 1.43304C0.912717 1.47306 0.99255 1.4964 1.07904 1.49974C0.939328 1.40637 0.84619 1.2463 0.84619 1.0629C0.84619 0.966194 0.872801 0.876159 0.916044 0.799463C1.17217 1.11625 1.55803 1.323 1.99046 1.34634C1.98048 1.30966 1.97715 1.26631 1.97715 1.2263C1.97715 0.936183 2.21 0.702759 2.49939 0.702759C2.64908 0.702759 2.78546 0.766117 2.8786 0.866156C2.99835 0.842813 3.10812 0.799463 3.21124 0.73944C3.17132 0.862821 3.08816 0.96286 2.98172 1.02955C3.08816 1.01621 3.18795 0.989537 3.28109 0.946187C3.21456 1.05289 3.12808 1.14626 3.02496 1.21963Z" fill="#F2F2F2"/>
</svg>
