<svg width="6" height="6" viewBox="0 0 6 6" fill="none" xmlns="http://www.w3.org/2000/svg">
<g clip-path="url(#clip0_2_437)">
<path d="M5.24718 1.55393H3.38525V1.2154C3.38525 0.981815 3.19567 0.792236 2.96208 0.792236C2.7285 0.792236 2.53892 0.981815 2.53892 1.2154V1.55393H0.676988C0.396517 1.55393 0.169189 1.78126 0.169189 2.06173V5.10853C0.169189 5.389 0.396517 5.61634 0.676988 5.61634H5.24718C5.52765 5.61634 5.75499 5.389 5.75499 5.10853V2.06173C5.75499 1.78126 5.52765 1.55393 5.24718 1.55393ZM2.96208 1.04614C3.0556 1.04614 3.13135 1.12188 3.13135 1.2154C3.13135 1.30892 3.0556 1.38467 2.96208 1.38467C2.86856 1.38467 2.79282 1.30892 2.79282 1.2154C2.79282 1.12188 2.86856 1.04614 2.96208 1.04614ZM1.86185 2.27332C2.25252 2.27332 2.56914 2.59002 2.56914 2.9806C2.56914 3.37118 2.25252 3.68788 1.86185 3.68788C1.47118 3.68788 1.15457 3.37119 1.15457 2.9806C1.15457 2.59002 1.47118 2.27332 1.86185 2.27332ZM2.96208 5.02389H0.761621V4.70957C0.761621 4.27549 1.11345 3.92366 1.54753 3.92366H2.17626C2.61027 3.92366 2.96208 4.27549 2.96208 4.70957V5.02389ZM5.16253 3.41586H3.55451V3.16196H5.16253V3.41586ZM5.24718 2.82343H3.13135V2.56953H5.24718V2.82343Z" fill="white"/>
</g>
<defs>
<clipPath id="clip0_2_437">
<rect width="5.5858" height="5.5858" fill="white" transform="translate(0.169189 0.411377)"/>
</clipPath>
</defs>
</svg>
