<svg width="6" height="6" viewBox="0 0 6 6" fill="none" xmlns="http://www.w3.org/2000/svg">
<g clip-path="url(#clip0_2_568)">
<path d="M5.34239 1.55393H3.48046V1.2154C3.48046 0.981815 3.29088 0.792236 3.0573 0.792236C2.82371 0.792236 2.63413 0.981815 2.63413 1.2154V1.55393H0.772203C0.491731 1.55393 0.264404 1.78126 0.264404 2.06173V5.10853C0.264404 5.389 0.491731 5.61634 0.772203 5.61634H5.34239C5.62286 5.61634 5.8502 5.389 5.8502 5.10853V2.06173C5.8502 1.78126 5.62286 1.55393 5.34239 1.55393ZM3.0573 1.04614C3.15082 1.04614 3.22656 1.12188 3.22656 1.2154C3.22656 1.30892 3.15082 1.38467 3.0573 1.38467C2.96378 1.38467 2.88803 1.30892 2.88803 1.2154C2.88803 1.12188 2.96378 1.04614 3.0573 1.04614ZM1.95707 2.27332C2.34774 2.27332 2.66435 2.59002 2.66435 2.9806C2.66435 3.37118 2.34774 3.68788 1.95707 3.68788C1.5664 3.68788 1.24978 3.37119 1.24978 2.9806C1.24978 2.59002 1.5664 2.27332 1.95707 2.27332ZM3.0573 5.02389H0.856836V4.70957C0.856836 4.27549 1.20866 3.92366 1.64274 3.92366H2.27148C2.70548 3.92366 3.0573 4.27549 3.0573 4.70957V5.02389ZM5.25775 3.41586H3.64973V3.16196H5.25775V3.41586ZM5.34239 2.82343H3.22656V2.56953H5.34239V2.82343Z" fill="white"/>
</g>
<defs>
<clipPath id="clip0_2_568">
<rect width="5.5858" height="5.5858" fill="white" transform="translate(0.264404 0.411377)"/>
</clipPath>
</defs>
</svg>
