<svg width="11" height="11" viewBox="0 0 11 11" fill="none" xmlns="http://www.w3.org/2000/svg">
<g clip-path="url(#clip0_2_221)">
<path d="M7.41859 6.82042V9.71858C7.41859 9.75589 7.4087 9.79254 7.38992 9.82477C7.37114 9.85701 7.34414 9.88369 7.31169 9.90208C7.27923 9.92048 7.24247 9.92993 7.20516 9.92948C7.16785 9.92903 7.13134 9.91868 7.09933 9.89951L5.30991 8.82577L3.52049 9.89951C3.48846 9.9187 3.4519 9.92905 3.41456 9.92948C3.37722 9.92991 3.34043 9.92042 3.30796 9.90198C3.27548 9.88353 3.24849 9.8568 3.22974 9.8245C3.21099 9.7922 3.20116 9.75551 3.20124 9.71816V6.82084C2.65558 6.38396 2.25908 5.78839 2.06654 5.11642C1.87401 4.44445 1.89494 3.72927 2.12644 3.06971C2.35795 2.41015 2.7886 1.83878 3.35888 1.43456C3.92915 1.03034 4.61091 0.813232 5.30991 0.813232C6.00892 0.813232 6.69067 1.03034 7.26095 1.43456C7.83123 1.83878 8.26188 2.41015 8.49338 3.06971C8.72489 3.72927 8.74582 4.44445 8.55328 5.11642C8.36075 5.78839 7.96425 6.38396 7.41859 6.82084V6.82042ZM5.30991 6.7171C5.98102 6.7171 6.62464 6.4505 7.09918 5.97596C7.57373 5.50141 7.84032 4.85779 7.84032 4.18669C7.84032 3.51558 7.57373 2.87196 7.09918 2.39742C6.62464 1.92288 5.98102 1.65628 5.30991 1.65628C4.63881 1.65628 3.99519 1.92288 3.52064 2.39742C3.0461 2.87196 2.7795 3.51558 2.7795 4.18669C2.7795 4.85779 3.0461 5.50141 3.52064 5.97596C3.99519 6.4505 4.63881 6.7171 5.30991 6.7171V6.7171ZM5.30991 5.87363C4.86251 5.87363 4.43343 5.6959 4.11707 5.37953C3.8007 5.06317 3.62297 4.63409 3.62297 4.18669C3.62297 3.73928 3.8007 3.3102 4.11707 2.99384C4.43343 2.67748 4.86251 2.49975 5.30991 2.49975C5.75732 2.49975 6.1864 2.67748 6.50276 2.99384C6.81912 3.3102 6.99685 3.73928 6.99685 4.18669C6.99685 4.63409 6.81912 5.06317 6.50276 5.37953C6.1864 5.6959 5.75732 5.87363 5.30991 5.87363Z" fill="#2F80ED"/>
</g>
<defs>
<clipPath id="clip0_2_221">
<rect width="10.1216" height="10.1216" fill="white" transform="translate(0.249268 0.391113)"/>
</clipPath>
</defs>
</svg>
