<svg width="7" height="4" viewBox="0 0 7 4" fill="none" xmlns="http://www.w3.org/2000/svg">
<g clip-path="url(#clip0_2_574)">
<path d="M3.77806 1.28969C4.10972 1.28969 4.37591 1.02349 4.37591 0.691834C4.37591 0.360177 4.10972 0.0917969 3.77806 0.0917969C3.4464 0.0917969 3.1802 0.357995 3.1802 0.689652C3.1802 1.02349 3.44858 1.28969 3.77806 1.28969ZM2.38815 3.02216H1.31245C0.96334 3.02216 0.943702 2.48976 1.319 2.48976H2.25069L2.78527 1.70208C2.94237 1.48825 3.12347 1.38569 3.37658 1.38569H4.17299C4.42828 1.38569 4.6072 1.47952 4.7643 1.70426L5.30106 2.49194H6.2393C6.6146 2.49194 6.59278 3.02434 6.25239 3.02434H5.17669C5.09159 3.02434 4.98904 2.99379 4.92795 2.90215L4.51774 2.31739L4.51556 3.78366H3.0471L3.04492 2.31739L2.63472 2.90215C2.5758 2.99161 2.47325 3.02216 2.38815 3.02216ZM1.06589 0.990761C1.02007 1.04749 0.917519 1.32024 1.35391 1.76754C1.81212 2.23884 2.10887 2.13629 2.15905 2.08392L1.85358 1.77845C1.80994 1.82209 1.75539 1.78281 1.64847 1.69771C1.57865 1.64098 1.49792 1.56462 1.4281 1.47734C1.38009 1.41624 1.33645 1.35297 1.38009 1.30714L1.06589 0.990761ZM2.27033 1.97482C2.28997 1.95518 2.28779 1.92464 2.27033 1.90718L2.03031 1.66717C2.01068 1.64753 1.98013 1.64753 1.96267 1.66717L1.8754 1.75444L2.18305 2.0621C2.18523 2.0621 2.27033 1.97482 2.27033 1.97482ZM1.49137 1.19586C1.51101 1.17623 1.50883 1.14568 1.49137 1.12822L1.24481 0.881664C1.22517 0.862026 1.19463 0.862026 1.17717 0.881664L1.08989 0.968942L1.40409 1.28314L1.49137 1.19586ZM6.52077 0.925303V2.07301C6.52077 2.10574 6.49459 2.13192 6.46186 2.13192H5.53235V1.953H5.44289C5.42543 1.953 5.41234 1.93991 5.41234 1.92246C5.41234 1.905 5.42543 1.89191 5.44289 1.89191H5.53235H5.62181C5.63926 1.89191 5.65236 1.87882 5.65236 1.86136C5.65236 1.8439 5.63926 1.83081 5.62181 1.83081H5.53235V1.6868H5.44289C5.42543 1.6868 5.41234 1.67371 5.41234 1.65626C5.41234 1.6388 5.42543 1.62571 5.44289 1.62571H5.53235H5.62181C5.63926 1.62571 5.65236 1.61262 5.65236 1.59516C5.65236 1.57771 5.63926 1.56462 5.62181 1.56462H5.53235V1.41624H5.44289C5.42543 1.41624 5.41234 1.40315 5.41234 1.38569C5.41234 1.36824 5.42543 1.35515 5.44289 1.35515H5.53235H5.62181C5.63926 1.35515 5.65236 1.34206 5.65236 1.3246C5.65236 1.30714 5.63926 1.29405 5.62181 1.29405H5.53235V1.15004H5.44289C5.42543 1.15004 5.41234 1.13695 5.41234 1.1195C5.41234 1.10204 5.42543 1.08895 5.44289 1.08895H5.53235H5.62181C5.63926 1.08895 5.65236 1.07586 5.65236 1.0584C5.65236 1.04095 5.63926 1.02785 5.62181 1.02785H5.53235V0.848935H6.46186C6.49459 0.86639 6.52077 0.892574 6.52077 0.925303ZM5.92728 1.35078C5.92728 1.41406 5.97747 1.46425 6.04074 1.46425C6.10402 1.46425 6.1542 1.41406 6.1542 1.35078C6.1542 1.28751 6.10402 1.23732 6.04074 1.23732C5.97747 1.23732 5.92728 1.28751 5.92728 1.35078ZM6.2393 1.60171C6.2393 1.5428 6.1913 1.49479 6.13239 1.49479H5.94474C5.88583 1.49479 5.83782 1.5428 5.83782 1.60171V1.73699H6.2393V1.60171Z" fill="white"/>
</g>
<defs>
<clipPath id="clip0_2_574">
<rect width="5.5858" height="3.77478" fill="white" transform="translate(0.97876 0.0483398)"/>
</clipPath>
</defs>
</svg>
