<svg width="7" height="4" viewBox="0 0 7 4" fill="none" xmlns="http://www.w3.org/2000/svg">
<g clip-path="url(#clip0_2_443)">
<path d="M3.68284 1.28969C4.0145 1.28969 4.2807 1.02349 4.2807 0.691834C4.2807 0.360177 4.0145 0.0917969 3.68284 0.0917969C3.35119 0.0917969 3.08499 0.357995 3.08499 0.689652C3.08499 1.02349 3.35337 1.28969 3.68284 1.28969ZM2.29294 3.02216H1.21724C0.868125 3.02216 0.848488 2.48976 1.22378 2.48976H2.15548L2.69006 1.70208C2.84716 1.48825 3.02826 1.38569 3.28136 1.38569H4.07778C4.33307 1.38569 4.51199 1.47952 4.66909 1.70426L5.20585 2.49194H6.14409C6.51938 2.49194 6.49756 3.02434 6.15718 3.02434H5.08148C4.99638 3.02434 4.89383 2.99379 4.83273 2.90215L4.42253 2.31739L4.42034 3.78366H2.95189L2.94971 2.31739L2.5395 2.90215C2.48059 2.99161 2.37804 3.02216 2.29294 3.02216ZM0.970677 0.990761C0.924856 1.04749 0.822304 1.32024 1.25869 1.76754C1.7169 2.23884 2.01365 2.13629 2.06384 2.08392L1.75836 1.77845C1.71472 1.82209 1.66017 1.78281 1.55326 1.69771C1.48344 1.64098 1.4027 1.56462 1.33288 1.47734C1.28488 1.41624 1.24124 1.35297 1.28488 1.30714L0.970677 0.990761ZM2.17511 1.97482C2.19475 1.95518 2.19257 1.92464 2.17511 1.90718L1.9351 1.66717C1.91546 1.64753 1.88491 1.64753 1.86746 1.66717L1.78018 1.75444L2.08784 2.0621C2.09002 2.0621 2.17511 1.97482 2.17511 1.97482ZM1.39616 1.19586C1.4158 1.17623 1.41361 1.14568 1.39616 1.12822L1.1496 0.881664C1.12996 0.862026 1.09941 0.862026 1.08196 0.881664L0.994678 0.968942L1.30888 1.28314L1.39616 1.19586ZM6.42556 0.925303V2.07301C6.42556 2.10574 6.39937 2.13192 6.36665 2.13192H5.43713V1.953H5.34767C5.33022 1.953 5.31713 1.93991 5.31713 1.92246C5.31713 1.905 5.33022 1.89191 5.34767 1.89191H5.43713H5.52659C5.54405 1.89191 5.55714 1.87882 5.55714 1.86136C5.55714 1.8439 5.54405 1.83081 5.52659 1.83081H5.43713V1.6868H5.34767C5.33022 1.6868 5.31713 1.67371 5.31713 1.65626C5.31713 1.6388 5.33022 1.62571 5.34767 1.62571H5.43713H5.52659C5.54405 1.62571 5.55714 1.61262 5.55714 1.59516C5.55714 1.57771 5.54405 1.56462 5.52659 1.56462H5.43713V1.41624H5.34767C5.33022 1.41624 5.31713 1.40315 5.31713 1.38569C5.31713 1.36824 5.33022 1.35515 5.34767 1.35515H5.43713H5.52659C5.54405 1.35515 5.55714 1.34206 5.55714 1.3246C5.55714 1.30714 5.54405 1.29405 5.52659 1.29405H5.43713V1.15004H5.34767C5.33022 1.15004 5.31713 1.13695 5.31713 1.1195C5.31713 1.10204 5.33022 1.08895 5.34767 1.08895H5.43713H5.52659C5.54405 1.08895 5.55714 1.07586 5.55714 1.0584C5.55714 1.04095 5.54405 1.02785 5.52659 1.02785H5.43713V0.848935H6.36665C6.39937 0.86639 6.42556 0.892574 6.42556 0.925303ZM5.83207 1.35078C5.83207 1.41406 5.88225 1.46425 5.94553 1.46425C6.00881 1.46425 6.05899 1.41406 6.05899 1.35078C6.05899 1.28751 6.00881 1.23732 5.94553 1.23732C5.88225 1.23732 5.83207 1.28751 5.83207 1.35078ZM6.14409 1.60171C6.14409 1.5428 6.09608 1.49479 6.03717 1.49479H5.84952C5.79061 1.49479 5.74261 1.5428 5.74261 1.60171V1.73699H6.14409V1.60171Z" fill="white"/>
</g>
<defs>
<clipPath id="clip0_2_443">
<rect width="5.5858" height="3.77478" fill="white" transform="translate(0.883545 0.0483398)"/>
</clipPath>
</defs>
</svg>
