<svg width="7" height="8" viewBox="0 0 7 8" fill="none" xmlns="http://www.w3.org/2000/svg">
<g clip-path="url(#clip0_2_156)">
<path d="M3.49656 2.76074C2.90432 2.76074 2.42236 3.2427 2.42236 3.83493C2.42236 4.42717 2.90432 4.90913 3.49656 4.90913C4.08879 4.90913 4.57075 4.42717 4.57075 3.83493C4.57075 3.2427 4.08879 2.76074 3.49656 2.76074Z" fill="white"/>
<path d="M6.38703 3.11851H6.14617C6.0847 2.89042 5.99435 2.67212 5.87643 2.46719L6.04663 2.29699C6.10929 2.23433 6.14378 2.1509 6.14378 2.06234C6.14378 1.97366 6.10929 1.89035 6.04663 1.82757L5.50321 1.28415C5.37788 1.15894 5.15935 1.1587 5.03378 1.28415L4.86358 1.45435C4.65877 1.33654 4.44047 1.24619 4.21239 1.18472V0.943867C4.21239 0.760896 4.06355 0.612061 3.88058 0.612061H3.11194C2.92896 0.612061 2.78013 0.760896 2.78013 0.943867V1.18472C2.55204 1.24619 2.33374 1.33654 2.12881 1.45447L1.95861 1.28427C1.83317 1.1587 1.61451 1.15894 1.48919 1.28427L0.945768 1.82769C0.883107 1.89035 0.848613 1.97378 0.848613 2.06246C0.848613 2.15102 0.883107 2.23433 0.945768 2.29711L1.11597 2.46731C0.998164 2.67212 0.907694 2.89042 0.846345 3.11851H0.605488C0.422517 3.11851 0.273682 3.26734 0.273682 3.45031V4.21872C0.273682 4.40181 0.422517 4.55076 0.605488 4.55076H0.846345C0.907813 4.77885 0.998164 4.99715 1.11609 5.20208L0.945887 5.37228C0.883226 5.43494 0.848732 5.51837 0.848732 5.60693C0.848732 5.69561 0.883226 5.77892 0.945887 5.8417L1.48931 6.38513C1.61463 6.51057 1.83329 6.51069 1.95873 6.38513L2.12893 6.21493C2.33386 6.33273 2.55216 6.4232 2.78025 6.48467V6.72541C2.78013 6.90826 2.92896 7.05721 3.11194 7.05721H3.88046C4.06343 7.05721 4.21227 6.90826 4.21227 6.72529V6.48455C4.44035 6.42308 4.65865 6.33273 4.86358 6.21481L5.03378 6.38501C5.15935 6.51057 5.37776 6.51033 5.50321 6.38501L6.04663 5.84159C6.10929 5.77892 6.14378 5.6955 6.14378 5.60681C6.14378 5.51825 6.10929 5.43494 6.04663 5.37216L5.87643 5.20196C5.99423 4.99703 6.0847 4.77873 6.14617 4.55065H6.38703C6.57 4.55065 6.71883 4.40169 6.71883 4.21872V3.45031C6.71883 3.26734 6.57 3.11851 6.38703 3.11851ZM4.92851 3.83464C4.92851 4.62441 4.28603 5.26689 3.49626 5.26689C2.70649 5.26689 2.064 4.62441 2.064 3.83464C2.064 3.04487 2.70649 2.40238 3.49626 2.40238C4.28603 2.40238 4.92851 3.04487 4.92851 3.83464Z" fill="white"/>
</g>
<defs>
<clipPath id="clip0_2_156">
<rect width="6.44515" height="6.44515" fill="white" transform="translate(0.273682 0.612061)"/>
</clipPath>
</defs>
</svg>
