<svg width="6" height="8" viewBox="0 0 6 8" fill="none" xmlns="http://www.w3.org/2000/svg">
<g clip-path="url(#clip0_2_418)">
<path d="M4.28735 2.29387C4.28735 2.38994 4.36909 2.48602 4.48334 2.48602C4.6466 2.48602 4.69559 2.40916 4.69559 2.29387C4.69559 2.27465 4.69559 2.27465 4.69559 2.25552C4.67933 2.19788 4.63026 2.15945 4.58141 2.12102C4.56501 2.12102 4.53241 2.10181 4.49982 2.10181C4.38535 2.10189 4.28735 2.17867 4.28735 2.29387Z" fill="white"/>
<path d="M4.63037 1.65985C4.61389 1.54456 4.54863 1.44849 4.46704 1.44849C4.38531 1.44849 4.33631 1.54456 4.35279 1.65985C4.36927 1.77514 4.43438 1.87121 4.51604 1.87121C4.58137 1.87121 4.64663 1.77514 4.63037 1.65985Z" fill="white"/>
<path d="M3.89563 3.10089L4.17328 2.77424C4.33653 2.92796 4.53274 3.02404 4.74499 3.02404C5.25123 3.02404 5.65961 2.54358 5.65961 1.94801C5.65947 1.35235 5.25123 0.87207 4.74492 0.87207C4.23875 0.87207 3.8303 1.35244 3.8303 1.9481C3.8303 2.2171 3.91189 2.44759 4.04262 2.62061L3.76489 2.94735C3.81389 3.00491 3.86289 3.06264 3.89563 3.10089ZM4.89191 1.60214H5.07149V1.39087H5.13682V1.60223H5.31656V1.67909H5.13682V1.89054H5.07149V1.679H4.89191V1.60214ZM4.4836 1.96722C4.4836 1.94801 4.4836 1.9288 4.50008 1.90958C4.4836 1.90958 4.4836 1.90958 4.46748 1.90958C4.33675 1.90958 4.23875 1.79429 4.23875 1.65979C4.23875 1.52529 4.36934 1.41 4.50008 1.41H4.79391L4.72858 1.46764H4.63059C4.69592 1.48694 4.72858 1.58302 4.72858 1.679C4.72858 1.75586 4.69592 1.81351 4.64685 1.87115C4.59785 1.90958 4.58152 1.9288 4.58152 1.96722C4.58152 2.00565 4.63059 2.0633 4.66318 2.08251C4.74477 2.14016 4.76118 2.21702 4.76118 2.31309C4.76118 2.44751 4.66318 2.56288 4.46726 2.56288C4.30401 2.56288 4.15695 2.48602 4.15695 2.35152C4.15695 2.21702 4.28753 2.10173 4.45086 2.10173C4.46726 2.10173 4.48345 2.10173 4.49986 2.10173C4.49986 2.04417 4.4836 2.00574 4.4836 1.96722Z" fill="white"/>
<path d="M4.74511 5.29154C4.53286 5.29154 4.32054 5.38753 4.1734 5.54134L3.89582 5.2146C3.86308 5.27224 3.81409 5.3105 3.78149 5.34893L4.05922 5.67567C3.92856 5.86764 3.8469 6.09848 3.8469 6.34827C3.8469 6.94384 4.25536 7.4243 4.76159 7.4243C5.26775 7.4243 5.67629 6.94384 5.67629 6.34827C5.65966 5.75261 5.25142 5.29154 4.74511 5.29154ZM4.48379 6.84794H4.30414V6.17534H4.48379V6.84794ZM4.40213 6.07943C4.3368 6.07943 4.28788 6.0217 4.28788 5.96397C4.28788 5.90633 4.33687 5.84869 4.40213 5.84869C4.46739 5.84869 4.51638 5.90633 4.51638 5.96397C4.50005 6.04092 4.46746 6.07943 4.40213 6.07943ZM5.21876 6.84794H5.00643V6.50216C5.00643 6.40617 4.97384 6.34844 4.90837 6.34844C4.85937 6.34844 4.82678 6.38687 4.81037 6.4253C4.81037 6.44477 4.81037 6.46382 4.81037 6.48303V6.8482H4.61438C4.61438 6.8482 4.61438 6.23332 4.61438 6.17559H4.81037V6.27167C4.82678 6.23332 4.89211 6.15638 4.9901 6.15638C5.12069 6.15638 5.21876 6.25237 5.21876 6.46381V6.84794Z" fill="white"/>
<path d="M1.87036 5.2146L1.59271 5.54134C1.42938 5.38753 1.23339 5.29154 1.02107 5.29154C0.514759 5.29154 0.106445 5.77208 0.106445 6.36748C0.106445 6.96314 0.514759 7.4436 1.02107 7.4436C1.5273 7.4436 1.93569 6.96314 1.93569 6.36748C1.93569 6.11769 1.85403 5.86799 1.72337 5.69497L2.00102 5.36823C1.95202 5.3105 1.90302 5.25277 1.87036 5.2146ZM1.41312 6.19447C1.41312 6.52112 1.2008 6.88611 0.82515 6.88611C0.710895 6.88611 0.596494 6.84768 0.514831 6.77065C0.531164 6.77065 0.547497 6.77065 0.563829 6.77065C0.661824 6.77065 0.743487 6.73231 0.82515 6.67466C0.743487 6.67466 0.661824 6.5978 0.629159 6.50164C0.645492 6.50164 0.661751 6.50164 0.661751 6.50164C0.678157 6.50164 0.694416 6.50164 0.710822 6.50164C0.612754 6.48226 0.547497 6.38636 0.547497 6.27107C0.580162 6.29037 0.612827 6.30941 0.645492 6.30941C0.596494 6.27107 0.547497 6.19412 0.547497 6.11726C0.547497 6.07901 0.563829 6.0404 0.580162 6.00198C0.678157 6.15578 0.825077 6.25177 1.00473 6.25177C1.00473 6.23238 1.00473 6.21342 1.00473 6.19412C1.00473 6.05962 1.1028 5.94433 1.21706 5.94433C1.28239 5.94433 1.33139 5.98267 1.36412 6.02119C1.41312 6.00189 1.46212 5.98276 1.49478 5.96355C1.47838 6.02119 1.44571 6.05953 1.39672 6.09788C1.44571 6.09788 1.47838 6.07858 1.51104 6.05953C1.47838 6.11718 1.44571 6.15552 1.41305 6.17482C1.41312 6.17517 1.41312 6.17517 1.41312 6.19447Z" fill="white"/>
<path d="M1.02107 3.02411C1.23339 3.02411 1.44564 2.92803 1.59271 2.77432L1.87036 3.10097C1.90302 3.04332 1.95202 3.00498 1.98469 2.96655L1.70696 2.6399C1.83762 2.44775 1.91928 2.21717 1.91928 1.96738C1.91928 1.37173 1.51097 0.891357 1.00466 0.891357C0.498426 0.891357 0.106445 1.37173 0.106445 1.96738C0.106445 2.54365 0.514759 3.02411 1.02107 3.02411ZM0.808744 1.77506H0.906739V1.65978C0.906739 1.50606 0.955737 1.40998 1.11906 1.40998H1.24972V1.60213H1.16806C1.10273 1.60213 1.10273 1.62135 1.10273 1.67899V1.77506H1.24972L1.23339 1.96721H1.08625V2.50522H0.890261V1.96721H0.792339V1.77506H0.808744V1.77506Z" fill="white"/>
<path d="M3.71626 4.69574C3.69978 4.65748 3.66719 4.63801 3.65093 4.63801C3.50393 4.58037 3.37335 4.54211 3.22635 4.48438C3.21002 4.48438 3.17736 4.44603 3.17736 4.36909C3.17736 4.33057 3.17736 4.31136 3.14476 4.31136C3.12829 4.31136 3.14476 4.31136 3.12829 4.29214C3.11203 4.21529 3.11203 4.17677 3.11203 4.15764C3.11203 4.13851 3.12829 4.13834 3.12829 4.11921C3.17736 4.04235 3.19362 3.92715 3.19362 3.88863C3.19362 3.88863 3.21002 3.88863 3.21002 3.86933C3.22635 3.8309 3.22635 3.8309 3.22635 3.77317C3.24283 3.73492 3.24283 3.67727 3.21002 3.67727C3.19362 3.69649 3.19362 3.67727 3.19362 3.63884V3.40827C3.19362 3.33141 3.14455 3.27385 3.11203 3.25463C3.06288 3.21612 3.0467 3.1969 3.03029 3.1969C3.01389 3.17769 3.01389 3.15847 3.03029 3.13926C3.04662 3.12013 3.06288 3.12013 3.06288 3.10083C3.06288 3.10083 3.06288 3.10083 3.04648 3.10083C3.03007 3.10083 2.93222 3.12022 2.88323 3.13926C2.80156 3.15847 2.7199 3.1969 2.6545 3.25463C2.6055 3.29298 2.57283 3.35062 2.57283 3.42765C2.57283 3.46591 2.57283 3.58128 2.57283 3.65823C2.57283 3.67762 2.57283 3.69666 2.5565 3.67762C2.5075 3.67762 2.54017 3.75447 2.54017 3.77352C2.54017 3.81195 2.5565 3.83125 2.57276 3.86968C2.57276 3.88898 2.58917 3.88898 2.58917 3.88898C2.6055 3.94662 2.62183 4.06191 2.6545 4.11955C2.6545 4.11955 2.6709 4.13886 2.6709 4.15798C2.6709 4.19641 2.6709 4.25406 2.6545 4.29249C2.6545 4.29249 2.6545 4.31179 2.63816 4.31179C2.6055 4.31179 2.6055 4.331 2.6055 4.36943C2.6055 4.42708 2.57283 4.48481 2.5565 4.48481C2.47484 4.52306 2.22992 4.61922 2.14819 4.63844C2.09919 4.65783 2.08286 4.67687 2.06653 4.69608L1.98486 4.92666C2.31144 4.92666 2.47484 5.15724 2.81782 5.2341H2.98115C3.32413 5.17645 3.56905 4.92666 3.79777 4.92666L3.71626 4.69574Z" fill="white"/>
</g>
<defs>
<clipPath id="clip0_2_418">
<rect width="5.5858" height="6.57153" fill="white" transform="translate(0.0981445 0.87207)"/>
</clipPath>
</defs>
</svg>
