<svg width="230" height="31" viewBox="0 0 230 31" fill="none" xmlns="http://www.w3.org/2000/svg">
<g opacity="0.6">
<g clip-path="url(#clip0_2_1641)">
<path d="M227.518 0H201.859C200.63 0 199.636 0.999024 199.636 2.23418V28.7598C199.636 29.9949 200.63 31 201.859 31H227.518C228.747 31 229.747 29.9949 229.747 28.7658V2.23418C229.747 0.999024 228.747 0 227.518 0ZM208.57 26.4166H204.1V11.6189H208.57V26.4166ZM206.335 9.60273C204.9 9.60273 203.741 8.40996 203.741 6.93867C203.741 5.46738 204.9 4.27461 206.335 4.27461C207.764 4.27461 208.923 5.46738 208.923 6.93867C208.923 8.40391 207.764 9.60273 206.335 9.60273ZM225.295 26.4166H220.832V19.2236C220.832 17.5102 220.802 15.3002 218.509 15.3002C216.186 15.3002 215.833 17.1711 215.833 19.1025V26.4166H211.375V11.6189H215.656V13.6412H215.715C216.309 12.4787 217.768 11.2496 219.938 11.2496C224.46 11.2496 225.295 14.3133 225.295 18.2973V26.4166Z" fill="white"/>
</g>
<g clip-path="url(#clip1_2_1641)">
<path d="M148.449 2.79121C152.471 2.79121 152.947 2.80937 154.529 2.88203C156 2.94863 156.794 3.20293 157.323 3.41484C158.023 3.69336 158.529 4.03242 159.052 4.57129C159.581 5.11621 159.905 5.63086 160.175 6.35137C160.381 6.89629 160.628 7.71973 160.693 9.22734C160.763 10.8621 160.781 11.3525 160.781 15.4879C160.781 19.6293 160.763 20.1197 160.693 21.7484C160.628 23.2621 160.381 24.0795 160.175 24.6244C159.905 25.3449 159.575 25.8656 159.052 26.4045C158.523 26.9494 158.023 27.2824 157.323 27.5609C156.794 27.7729 155.994 28.0272 154.529 28.0938C152.942 28.1664 152.465 28.1846 148.449 28.1846C144.426 28.1846 143.95 28.1664 142.368 28.0938C140.897 28.0272 140.103 27.7729 139.574 27.5609C138.874 27.2824 138.369 26.9434 137.845 26.4045C137.316 25.8596 136.992 25.3449 136.722 24.6244C136.516 24.0795 136.269 23.2561 136.204 21.7484C136.134 20.1137 136.116 19.6232 136.116 15.4879C136.116 11.3465 136.134 10.8561 136.204 9.22734C136.269 7.71367 136.516 6.89629 136.722 6.35137C136.992 5.63086 137.322 5.11016 137.845 4.57129C138.374 4.02637 138.874 3.69336 139.574 3.41484C140.103 3.20293 140.903 2.94863 142.368 2.88203C143.95 2.80937 144.426 2.79121 148.449 2.79121ZM148.449 0C144.361 0 143.85 0.0181641 142.244 0.0908203C140.644 0.163477 139.545 0.429883 138.592 0.811328C137.598 1.21094 136.757 1.7377 135.922 2.60352C135.081 3.46328 134.569 4.3291 134.181 5.34629C133.811 6.3332 133.552 7.45937 133.481 9.10625C133.411 10.7652 133.393 11.292 133.393 15.5C133.393 19.708 133.411 20.2348 133.481 21.8877C133.552 23.5346 133.811 24.6668 134.181 25.6477C134.569 26.6709 135.081 27.5367 135.922 28.3965C136.757 29.2563 137.598 29.7891 138.586 30.1826C139.545 30.5641 140.639 30.8305 142.238 30.9031C143.844 30.9758 144.355 30.9939 148.443 30.9939C152.53 30.9939 153.042 30.9758 154.647 30.9031C156.247 30.8305 157.346 30.5641 158.299 30.1826C159.287 29.7891 160.128 29.2563 160.963 28.3965C161.798 27.5367 162.316 26.6709 162.698 25.6537C163.069 24.6668 163.327 23.5406 163.398 21.8938C163.469 20.2408 163.486 19.7141 163.486 15.5061C163.486 11.298 163.469 10.7713 163.398 9.11836C163.327 7.47149 163.069 6.33926 162.698 5.3584C162.328 4.3291 161.816 3.46328 160.975 2.60352C160.14 1.74375 159.299 1.21094 158.311 0.817383C157.352 0.435937 156.258 0.169531 154.659 0.096875C153.047 0.0181641 152.536 0 148.449 0Z" fill="white"/>
<path d="M148.448 7.53809C144.179 7.53809 140.715 11.1043 140.715 15.5C140.715 19.8957 144.179 23.4619 148.448 23.4619C152.718 23.4619 156.182 19.8957 156.182 15.5C156.182 11.1043 152.718 7.53809 148.448 7.53809ZM148.448 20.6646C145.679 20.6646 143.432 18.3518 143.432 15.5C143.432 12.6482 145.679 10.3354 148.448 10.3354C151.218 10.3354 153.465 12.6482 153.465 15.5C153.465 18.3518 151.218 20.6646 148.448 20.6646Z" fill="white"/>
<path d="M158.293 7.22329C158.293 8.25259 157.482 9.08208 156.488 9.08208C155.488 9.08208 154.682 8.24654 154.682 7.22329C154.682 6.194 155.494 5.3645 156.488 5.3645C157.482 5.3645 158.293 6.20005 158.293 7.22329Z" fill="white"/>
</g>
<g clip-path="url(#clip2_2_1641)">
<path d="M76.6222 28.0939C87.9819 28.0939 94.1969 18.4022 94.1969 10.0001C94.1969 9.72766 94.191 9.44914 94.1793 9.17668C95.3883 8.27652 96.4316 7.16154 97.2603 5.88414C96.1343 6.39991 94.9388 6.73675 93.7147 6.88316C95.0036 6.08772 95.9687 4.83811 96.4311 3.366C95.2185 4.10585 93.8924 4.62775 92.5097 4.90934C91.578 3.89015 90.3461 3.21532 89.0046 2.9892C87.663 2.76307 86.2865 2.99824 85.0878 3.65834C83.889 4.31844 82.9349 5.36671 82.3729 6.64107C81.8109 7.91544 81.6723 9.34492 81.9786 10.7085C79.5232 10.5817 77.1212 9.925 74.9282 8.78109C72.7352 7.63718 70.8002 6.03157 69.2486 4.06834C68.46 5.46815 68.2187 7.12459 68.5737 8.701C68.9287 10.2774 69.8534 11.6555 71.1599 12.5552C70.1791 12.5231 69.2197 12.2513 68.3611 11.762V11.8407C68.3603 13.3097 68.8535 14.7337 69.7571 15.8706C70.6607 17.0075 71.9188 17.7872 73.3176 18.0771C72.4091 18.333 71.4555 18.3703 70.5306 18.1861C70.9254 19.4494 71.6933 20.5544 72.7274 21.3467C73.7614 22.1391 75.0099 22.5793 76.2987 22.606C74.1108 24.3754 71.408 25.3351 68.6258 25.3306C68.1324 25.3298 67.6395 25.2987 67.1497 25.2373C69.9761 27.1042 73.264 28.0958 76.6222 28.0939Z" fill="white"/>
</g>
<g clip-path="url(#clip3_2_1641)">
<path d="M31.0169 15.5C31.0169 6.93958 24.2764 0 15.9616 0C7.64674 0 0.90625 6.93958 0.90625 15.5C0.90625 23.2364 6.41174 29.6489 13.6092 30.8117V19.9805H9.78654V15.5H13.6092V12.0852C13.6092 8.20047 15.8569 6.05469 19.2958 6.05469C20.9425 6.05469 22.6659 6.35742 22.6659 6.35742V10.1719H20.7675C18.8974 10.1719 18.314 11.3668 18.314 12.5938V15.5H22.4895L21.822 19.9805H18.314V30.8117C25.5114 29.6489 31.0169 23.2364 31.0169 15.5Z" fill="white"/>
</g>
</g>
<defs>
<clipPath id="clip0_2_1641">
<rect width="30.1107" height="31" fill="white" transform="translate(199.636)"/>
</clipPath>
<clipPath id="clip1_2_1641">
<rect width="30.1107" height="31" fill="white" transform="translate(133.393)"/>
</clipPath>
<clipPath id="clip2_2_1641">
<rect width="30.1107" height="31" fill="white" transform="translate(67.1497)"/>
</clipPath>
<clipPath id="clip3_2_1641">
<rect width="30.1107" height="31" fill="white" transform="translate(0.90625)"/>
</clipPath>
</defs>
</svg>
