<svg width="6" height="8" viewBox="0 0 6 8" fill="none" xmlns="http://www.w3.org/2000/svg">
<g clip-path="url(#clip0_2_549)">
<path d="M4.38281 2.29387C4.38281 2.38994 4.46455 2.48602 4.5788 2.48602C4.74206 2.48602 4.79105 2.40916 4.79105 2.29387C4.79105 2.27465 4.79105 2.27465 4.79105 2.25552C4.77479 2.19788 4.72572 2.15945 4.67687 2.12102C4.66047 2.12102 4.62787 2.10181 4.59528 2.10181C4.48081 2.10189 4.38281 2.17867 4.38281 2.29387Z" fill="white"/>
<path d="M4.72558 1.65985C4.7091 1.54456 4.64385 1.44849 4.56226 1.44849C4.48052 1.44849 4.43152 1.54456 4.448 1.65985C4.46448 1.77514 4.52959 1.87121 4.61126 1.87121C4.67659 1.87121 4.74184 1.77514 4.72558 1.65985Z" fill="white"/>
<path d="M3.99084 3.10089L4.26849 2.77424C4.43175 2.92796 4.62796 3.02404 4.84021 3.02404C5.34644 3.02404 5.75483 2.54358 5.75483 1.94801C5.75468 1.35235 5.34644 0.87207 4.84013 0.87207C4.33397 0.87207 3.92551 1.35244 3.92551 1.9481C3.92551 2.2171 4.0071 2.44759 4.13783 2.62061L3.86011 2.94735C3.90911 3.00491 3.9581 3.06264 3.99084 3.10089ZM4.98713 1.60214H5.16671V1.39087H5.23204V1.60223H5.41177V1.67909H5.23204V1.89054H5.16671V1.679H4.98713V1.60214ZM4.57881 1.96722C4.57881 1.94801 4.57881 1.9288 4.59529 1.90958C4.57881 1.90958 4.57881 1.90958 4.5627 1.90958C4.43196 1.90958 4.33397 1.79429 4.33397 1.65979C4.33397 1.52529 4.46456 1.41 4.59529 1.41H4.88913L4.8238 1.46764H4.7258C4.79113 1.48694 4.8238 1.58302 4.8238 1.679C4.8238 1.75586 4.79113 1.81351 4.74206 1.87115C4.69307 1.90958 4.67673 1.9288 4.67673 1.96722C4.67673 2.00565 4.7258 2.0633 4.7584 2.08251C4.83999 2.14016 4.85639 2.21702 4.85639 2.31309C4.85639 2.44751 4.7584 2.56288 4.56248 2.56288C4.39923 2.56288 4.25216 2.48602 4.25216 2.35152C4.25216 2.21702 4.38275 2.10173 4.54607 2.10173C4.56248 2.10173 4.57867 2.10173 4.59507 2.10173C4.59507 2.04417 4.57881 2.00574 4.57881 1.96722Z" fill="white"/>
<path d="M4.83984 5.29154C4.62759 5.29154 4.41527 5.38753 4.26813 5.54134L3.99055 5.2146C3.95781 5.27224 3.90881 5.3105 3.87622 5.34893L4.15395 5.67567C4.02329 5.86764 3.94162 6.09848 3.94162 6.34827C3.94162 6.94384 4.35008 7.4243 4.85632 7.4243C5.36248 7.4243 5.77101 6.94384 5.77101 6.34827C5.75439 5.75261 5.34615 5.29154 4.83984 5.29154ZM4.57852 6.84794H4.39886V6.17534H4.57852V6.84794ZM4.49686 6.07943C4.43153 6.07943 4.3826 6.0217 4.3826 5.96397C4.3826 5.90633 4.4316 5.84869 4.49686 5.84869C4.56211 5.84869 4.61111 5.90633 4.61111 5.96397C4.59478 6.04092 4.56219 6.07943 4.49686 6.07943ZM5.31348 6.84794H5.10116V6.50216C5.10116 6.40617 5.06857 6.34844 5.00309 6.34844C4.95409 6.34844 4.9215 6.38687 4.9051 6.4253C4.9051 6.44477 4.9051 6.46382 4.9051 6.48303V6.8482H4.70911C4.70911 6.8482 4.70911 6.23332 4.70911 6.17559H4.9051V6.27167C4.9215 6.23332 4.98683 6.15638 5.08483 6.15638C5.21541 6.15638 5.31348 6.25237 5.31348 6.46381V6.84794Z" fill="white"/>
<path d="M1.96582 5.2146L1.68816 5.54134C1.52484 5.38753 1.32885 5.29154 1.11653 5.29154C0.610218 5.29154 0.201904 5.77208 0.201904 6.36748C0.201904 6.96314 0.610218 7.4436 1.11653 7.4436C1.62276 7.4436 2.03115 6.96314 2.03115 6.36748C2.03115 6.11769 1.94949 5.86799 1.81882 5.69497L2.09648 5.36823C2.04748 5.3105 1.99848 5.25277 1.96582 5.2146ZM1.50858 6.19447C1.50858 6.52112 1.29626 6.88611 0.920608 6.88611C0.806354 6.88611 0.691953 6.84768 0.61029 6.77065C0.626623 6.77065 0.642956 6.77065 0.659288 6.77065C0.757283 6.77065 0.838946 6.73231 0.920608 6.67466C0.838946 6.67466 0.757283 6.5978 0.724618 6.50164C0.740951 6.50164 0.75721 6.50164 0.75721 6.50164C0.773616 6.50164 0.789875 6.50164 0.806281 6.50164C0.708213 6.48226 0.642956 6.38636 0.642956 6.27107C0.675621 6.29037 0.708286 6.30941 0.740951 6.30941C0.691953 6.27107 0.642956 6.19412 0.642956 6.11726C0.642956 6.07901 0.659288 6.0404 0.675621 6.00198C0.773616 6.15578 0.920536 6.25177 1.10019 6.25177C1.10019 6.23238 1.10019 6.21342 1.10019 6.19412C1.10019 6.05962 1.19826 5.94433 1.31252 5.94433C1.37785 5.94433 1.42684 5.98267 1.45958 6.02119C1.50858 6.00189 1.55758 5.98276 1.59024 5.96355C1.57384 6.02119 1.54117 6.05953 1.49217 6.09788C1.54117 6.09788 1.57384 6.07858 1.6065 6.05953C1.57384 6.11718 1.54117 6.15552 1.50851 6.17482C1.50858 6.17517 1.50858 6.17517 1.50858 6.19447Z" fill="white"/>
<path d="M1.11653 3.02411C1.32885 3.02411 1.5411 2.92803 1.68816 2.77432L1.96582 3.10097C1.99848 3.04332 2.04748 3.00498 2.08015 2.96655L1.80242 2.6399C1.93308 2.44775 2.01474 2.21717 2.01474 1.96738C2.01474 1.37173 1.60643 0.891357 1.10012 0.891357C0.593885 0.891357 0.201904 1.37173 0.201904 1.96738C0.201904 2.54365 0.610218 3.02411 1.11653 3.02411ZM0.904203 1.77506H1.0022V1.65978C1.0022 1.50606 1.0512 1.40998 1.21452 1.40998H1.34518V1.60213H1.26352C1.19819 1.60213 1.19819 1.62135 1.19819 1.67899V1.77506H1.34518L1.32885 1.96721H1.18171V2.50522H0.98572V1.96721H0.887798V1.77506H0.904203V1.77506Z" fill="white"/>
<path d="M3.81123 4.69574C3.79475 4.65748 3.76216 4.63801 3.7459 4.63801C3.59891 4.58037 3.46832 4.54211 3.32133 4.48438C3.30499 4.48438 3.27233 4.44603 3.27233 4.36909C3.27233 4.33057 3.27233 4.31136 3.23974 4.31136C3.22326 4.31136 3.23974 4.31136 3.22326 4.29214C3.207 4.21529 3.207 4.17677 3.207 4.15764C3.207 4.13851 3.22326 4.13834 3.22326 4.11921C3.27233 4.04235 3.28859 3.92715 3.28859 3.88863C3.28859 3.88863 3.30499 3.88863 3.30499 3.86933C3.32133 3.8309 3.32133 3.8309 3.32133 3.77317C3.3378 3.73492 3.3378 3.67727 3.30499 3.67727C3.28859 3.69649 3.28859 3.67727 3.28859 3.63884V3.40827C3.28859 3.33141 3.23952 3.27385 3.207 3.25463C3.15785 3.21612 3.14167 3.1969 3.12526 3.1969C3.10886 3.17769 3.10886 3.15847 3.12526 3.13926C3.14159 3.12013 3.15785 3.12013 3.15785 3.10083C3.15785 3.10083 3.15785 3.10083 3.14145 3.10083C3.12504 3.10083 3.02719 3.12022 2.9782 3.13926C2.89653 3.15847 2.81487 3.1969 2.74947 3.25463C2.70047 3.29298 2.66781 3.35062 2.66781 3.42765C2.66781 3.46591 2.66781 3.58128 2.66781 3.65823C2.66781 3.67762 2.66781 3.69666 2.65147 3.67762C2.60247 3.67762 2.63514 3.75447 2.63514 3.77352C2.63514 3.81195 2.65147 3.83125 2.66773 3.86968C2.66773 3.88898 2.68414 3.88898 2.68414 3.88898C2.70047 3.94662 2.7168 4.06191 2.74947 4.11955C2.74947 4.11955 2.76587 4.13886 2.76587 4.15798C2.76587 4.19641 2.76587 4.25406 2.74947 4.29249C2.74947 4.29249 2.74947 4.31179 2.73314 4.31179C2.70047 4.31179 2.70047 4.331 2.70047 4.36943C2.70047 4.42708 2.66781 4.48481 2.65147 4.48481C2.56981 4.52306 2.32489 4.61922 2.24316 4.63844C2.19416 4.65783 2.17783 4.67687 2.1615 4.69608L2.07983 4.92666C2.40641 4.92666 2.56981 5.15724 2.91279 5.2341H3.07612C3.4191 5.17645 3.66402 4.92666 3.89275 4.92666L3.81123 4.69574Z" fill="white"/>
</g>
<defs>
<clipPath id="clip0_2_549">
<rect width="5.5858" height="6.57153" fill="white" transform="translate(0.193604 0.87207)"/>
</clipPath>
</defs>
</svg>
