<svg width="6" height="6" viewBox="0 0 6 6" fill="none" xmlns="http://www.w3.org/2000/svg">
<g clip-path="url(#clip0_2_432)">
<path d="M2.23055 0.484275C2.63166 0.484275 2.95683 0.809451 2.95683 1.21056C2.95683 1.61167 2.63166 1.93684 2.23055 1.93684C1.82944 1.93684 1.50426 1.61167 1.50426 1.21056C1.50426 0.809451 1.82942 0.484275 2.23055 0.484275ZM1.0603 3.20637C1.0603 3.15184 1.09534 3.11486 1.15181 3.11486C1.20828 3.11486 1.24332 3.1499 1.24332 3.20637V5.23528H3.23913V3.20637C3.23913 3.15184 3.27417 3.11486 3.33064 3.11486C3.38517 3.11486 3.42215 3.1499 3.42215 3.20637V5.23528H4.05693V3.02335C4.05693 2.52294 3.64803 2.11598 3.14956 2.11598H2.96654L2.43303 2.94545L2.36877 2.32432L2.4564 2.11402H2.06308L2.15071 2.32432L2.08257 2.94934L1.54904 2.11598H1.33486C0.834446 2.11598 0.42749 2.52488 0.42749 3.02335V5.2353H1.06226V3.20639H1.0603V3.20637ZM5.77611 0.0859375H4.13397C4.05106 0.0859375 3.98407 0.152923 3.98407 0.235838V0.670264L3.47851 1.13327H3.98407V1.35431C3.98407 1.43722 4.05106 1.50421 4.13397 1.50421H5.77611C5.85903 1.50421 5.92601 1.43722 5.92601 1.35431V0.235838C5.92601 0.152923 5.85903 0.0859375 5.77611 0.0859375ZM4.59502 0.91508H4.37682V0.696884H4.59502V0.91508ZM5.07505 0.91508H4.85685V0.696884H5.07505V0.91508ZM5.55508 0.91508H5.33688V0.696884H5.55508V0.91508Z" fill="white"/>
</g>
<defs>
<clipPath id="clip0_2_432">
<rect width="5.5858" height="5.23669" fill="white" transform="translate(0.384033 0.0424805)"/>
</clipPath>
</defs>
</svg>
