<svg width="7" height="6" viewBox="0 0 7 6" fill="none" xmlns="http://www.w3.org/2000/svg">
<g clip-path="url(#clip0_2_563)">
<path d="M2.32649 0.484275C2.7276 0.484275 3.05278 0.809451 3.05278 1.21056C3.05278 1.61167 2.7276 1.93684 2.32649 1.93684C1.92539 1.93684 1.60021 1.61167 1.60021 1.21056C1.60021 0.809451 1.92536 0.484275 2.32649 0.484275ZM1.15625 3.20637C1.15625 3.15184 1.19129 3.11486 1.24776 3.11486C1.30423 3.11486 1.33927 3.1499 1.33927 3.20637V5.23528H3.33508V3.20637C3.33508 3.15184 3.37012 3.11486 3.42659 3.11486C3.48112 3.11486 3.5181 3.1499 3.5181 3.20637V5.23528H4.15288V3.02335C4.15288 2.52294 3.74398 2.11598 3.24551 2.11598H3.06249L2.52898 2.94545L2.46472 2.32432L2.55235 2.11402H2.15903L2.24666 2.32432L2.17851 2.94934L1.64498 2.11598H1.4308C0.930394 2.11598 0.523438 2.52488 0.523438 3.02335V5.2353H1.15821V3.20639H1.15625V3.20637ZM5.87206 0.0859375H4.22992C4.14701 0.0859375 4.08002 0.152923 4.08002 0.235838V0.670264L3.57446 1.13327H4.08002V1.35431C4.08002 1.43722 4.14701 1.50421 4.22992 1.50421H5.87206C5.95497 1.50421 6.02196 1.43722 6.02196 1.35431V0.235838C6.02196 0.152923 5.95497 0.0859375 5.87206 0.0859375ZM4.69097 0.91508H4.47277V0.696884H4.69097V0.91508ZM5.171 0.91508H4.9528V0.696884H5.171V0.91508ZM5.65103 0.91508H5.43283V0.696884H5.65103V0.91508Z" fill="white"/>
</g>
<defs>
<clipPath id="clip0_2_563">
<rect width="5.5858" height="5.23669" fill="white" transform="translate(0.47998 0.0424805)"/>
</clipPath>
</defs>
</svg>
