<svg width="3" height="3" viewBox="0 0 3 3" fill="none" xmlns="http://www.w3.org/2000/svg">
<path d="M0.651228 0.917592V1.92539H2.66183V0.917592L1.65653 1.29552L0.651228 0.917592ZM0.651228 0.413693V0.665643L1.65653 1.04357L2.66183 0.665643V0.413693H0.651228ZM0.651228 0.161743H2.66183C2.72849 0.161743 2.79241 0.188288 2.83955 0.235538C2.88668 0.282787 2.91316 0.346872 2.91316 0.413693V1.92539C2.91316 1.99221 2.88668 2.0563 2.83955 2.10355C2.79241 2.1508 2.72849 2.17734 2.66183 2.17734H0.651228C0.584572 2.17734 0.520647 2.1508 0.473514 2.10355C0.426381 2.0563 0.399902 1.99221 0.399902 1.92539V0.413693C0.399902 0.346872 0.426381 0.282787 0.473514 0.235538C0.520647 0.188288 0.584572 0.161743 0.651228 0.161743V0.161743Z" fill="#F2F2F2"/>
</svg>
