<svg width="4" height="4" viewBox="0 0 4 4" fill="none" xmlns="http://www.w3.org/2000/svg">
<path d="M1.98126 3.50005C1.19846 3.50005 0.562012 2.86314 0.562012 2.0795C0.562012 1.29475 1.19846 0.657837 1.98126 0.657837C2.76407 0.657837 3.40051 1.29475 3.40051 2.07839C3.40051 2.86203 2.76407 3.50005 1.98126 3.50005ZM3.17764 2.27291C3.13662 2.25957 2.80287 2.16064 2.42256 2.22067C2.58112 2.65639 2.64543 3.01208 2.65762 3.08545C2.93038 2.90204 3.12442 2.61082 3.17764 2.27291ZM2.45471 3.19771C2.43697 3.091 2.36601 2.71975 2.19637 2.27736C2.19415 2.27847 2.19082 2.27958 2.1886 2.27958C1.50448 2.51856 1.25944 2.99319 1.23726 3.03765C1.44239 3.19771 1.70074 3.29331 1.98126 3.29331C2.14869 3.29442 2.30946 3.25996 2.45471 3.19771V3.19771ZM1.08092 2.89204C1.10864 2.84535 1.44128 2.29403 2.06664 2.09062C2.08216 2.08506 2.09879 2.08061 2.11432 2.07617C2.08438 2.00725 2.05112 1.93833 2.01563 1.87053C1.41024 2.05171 0.822577 2.04393 0.769355 2.04282C0.769355 2.05505 0.768246 2.06727 0.768246 2.0795C0.769355 2.39184 0.886887 2.6764 1.08092 2.89204V2.89204ZM0.794857 1.83163C0.849188 1.83274 1.34814 1.83496 1.91584 1.68379C1.71515 1.32587 1.49783 1.02576 1.46678 0.982407C1.12639 1.14247 0.873581 1.45592 0.794857 1.83163ZM1.69741 0.900153C1.73068 0.944615 1.95132 1.24473 2.1498 1.61043C2.58112 1.44814 2.76296 1.2036 2.78513 1.17248C2.57114 0.982407 2.2895 0.866807 1.98126 0.866807C1.88369 0.866807 1.78833 0.879034 1.69741 0.900153V0.900153ZM2.9193 1.31254C2.89379 1.34699 2.69089 1.60821 2.24294 1.79161C2.27066 1.84941 2.29837 1.90832 2.32388 1.96723C2.33275 1.98835 2.34162 2.00947 2.35049 2.02948C2.75409 1.97835 3.15436 2.0606 3.19428 2.06838C3.19095 1.78272 3.08894 1.51928 2.9193 1.31254V1.31254Z" fill="#F2F2F2"/>
</svg>
