<svg width="42" height="42" viewBox="0 0 42 42" fill="none" xmlns="http://www.w3.org/2000/svg">
<path d="M18.9165 31.417H23.0832V23.0837H31.4165V18.917H23.0832V10.5837H18.9165V18.917H10.5832V23.0837H18.9165V31.417ZM20.9998 41.8337C18.1179 41.8337 15.4096 41.2864 12.8748 40.192C10.3401 39.0989 8.13525 37.6149 6.26025 35.7399C4.38525 33.8649 2.90123 31.66 1.80817 29.1253C0.713726 26.5906 0.166504 23.8823 0.166504 21.0003C0.166504 18.1184 0.713726 15.41 1.80817 12.8753C2.90123 10.3406 4.38525 8.13574 6.26025 6.26074C8.13525 4.38574 10.3401 2.90102 12.8748 1.80658C15.4096 0.71352 18.1179 0.166992 20.9998 0.166992C23.8818 0.166992 26.5901 0.71352 29.1248 1.80658C31.6596 2.90102 33.8644 4.38574 35.7394 6.26074C37.6144 8.13574 39.0984 10.3406 40.1915 12.8753C41.2859 15.41 41.8332 18.1184 41.8332 21.0003C41.8332 23.8823 41.2859 26.5906 40.1915 29.1253C39.0984 31.66 37.6144 33.8649 35.7394 35.7399C33.8644 37.6149 31.6596 39.0989 29.1248 40.192C26.5901 41.2864 23.8818 41.8337 20.9998 41.8337Z" fill="#747474"/>
</svg>
