<svg width="4" height="4" viewBox="0 0 4 4" fill="none" xmlns="http://www.w3.org/2000/svg">
<path d="M1.6454 0.880554C0.813919 0.880554 0.137451 1.5587 0.137451 2.39225C0.137451 3.2258 0.813919 3.90395 1.6454 3.90395C2.47689 3.90395 3.15336 3.2258 3.15336 2.39225C3.15336 1.5587 2.47689 0.880554 1.6454 0.880554ZM0.439042 2.39225C0.439042 2.25635 0.462566 2.12589 0.504035 2.0039L0.740632 2.24108L1.04222 2.54342V2.84576L1.34381 3.1481L1.49461 3.29927V3.59118C0.900626 3.51635 0.439042 3.00782 0.439042 2.39225ZM2.59994 3.1289C2.50147 3.04939 2.35218 2.99693 2.24859 2.99693V2.84576C2.24859 2.76558 2.21681 2.68868 2.16025 2.63198C2.10369 2.57528 2.02698 2.54342 1.94699 2.54342H1.34381V2.08991C1.4238 2.08991 1.50051 2.05806 1.55707 2.00136C1.61363 1.94466 1.6454 1.86776 1.6454 1.78757V1.6364H1.7962C1.87619 1.6364 1.9529 1.60455 2.00946 1.54785C2.06602 1.49115 2.09779 1.41425 2.09779 1.33406V1.27193C2.53932 1.45167 2.85177 1.88583 2.85177 2.39225C2.85174 2.65902 2.76314 2.91819 2.59994 3.1289V3.1289Z" fill="#F2F2F2"/>
</svg>
