<svg width="3" height="3" viewBox="0 0 3 3" fill="none" xmlns="http://www.w3.org/2000/svg">
<path d="M2.4834 0.461914H0.741016C0.678001 0.461914 0.617567 0.487385 0.573009 0.532724C0.52845 0.578063 0.503418 0.639556 0.503418 0.703675V2.47659C0.503418 2.5407 0.52845 2.6022 0.573009 2.64754C0.617567 2.69288 0.678001 2.71835 0.741016 2.71835H2.4834C2.54641 2.71835 2.60685 2.69288 2.6514 2.64754C2.69596 2.6022 2.721 2.5407 2.721 2.47659V0.703675C2.721 0.639556 2.69596 0.578063 2.6514 0.532724C2.60685 0.487385 2.54641 0.461914 2.4834 0.461914V0.461914ZM2.40227 2.01004L2.32802 2.33742C2.32425 2.35407 2.31504 2.36892 2.30191 2.37956C2.28878 2.3902 2.27249 2.39599 2.2557 2.396C1.46371 2.396 0.820215 1.74269 0.820215 0.935362C0.820804 0.918441 0.826715 0.90216 0.837078 0.888913C0.847441 0.875667 0.861709 0.866155 0.877783 0.861776L1.19953 0.786226C1.20502 0.785045 1.2106 0.784387 1.21621 0.784262C1.23057 0.784999 1.24447 0.789634 1.25647 0.797685C1.26848 0.805735 1.27814 0.816909 1.28447 0.830045L1.43297 1.18261C1.43661 1.19212 1.43863 1.20218 1.43896 1.21238C1.43775 1.23474 1.42798 1.25574 1.41173 1.27086L1.22418 1.42699C1.33782 1.67207 1.53168 1.86932 1.77254 1.98496L1.92598 1.79412C1.94084 1.77759 1.96147 1.76764 1.98345 1.76641C1.99347 1.76674 2.00337 1.7688 2.01271 1.77251L2.3592 1.92361C2.37212 1.93004 2.38311 1.93987 2.39102 1.95209C2.39893 1.9643 2.40348 1.97845 2.4042 1.99306C2.4041 1.99877 2.40345 2.00446 2.40227 2.01004Z" fill="#F2F2F2"/>
</svg>
