<svg width="3" height="4" viewBox="0 0 3 4" fill="none" xmlns="http://www.w3.org/2000/svg">
<path d="M2.52677 0.829306C2.52669 0.756366 2.49775 0.686436 2.44631 0.63486C2.39486 0.583284 2.3251 0.554275 2.25234 0.554199H0.971691C0.898932 0.554275 0.829175 0.583284 0.777727 0.63486C0.726278 0.686436 0.697341 0.756366 0.697266 0.829306V2.84676C0.697341 2.9197 0.726278 2.98963 0.777727 3.0412C0.829175 3.09278 0.898932 3.12179 0.971691 3.12186H2.25234C2.3251 3.12179 2.39486 3.09278 2.44631 3.0412C2.49775 2.98963 2.52669 2.9197 2.52677 2.84676V0.829306ZM1.1089 2.84676C1.08177 2.84676 1.05524 2.83869 1.03267 2.82357C1.01011 2.80846 0.992521 2.78698 0.982136 2.76184C0.97175 2.73671 0.969033 2.70905 0.974327 2.68237C0.979622 2.65568 0.99269 2.63118 1.01188 2.61194C1.03107 2.5927 1.05552 2.5796 1.08213 2.57429C1.10875 2.56899 1.13634 2.57171 1.16141 2.58212C1.18648 2.59253 1.20791 2.61016 1.22299 2.63278C1.23807 2.6554 1.24612 2.682 1.24612 2.7092C1.24612 2.74568 1.23166 2.78067 1.20593 2.80647C1.1802 2.83226 1.14529 2.84676 1.1089 2.84676ZM1.1089 2.38825C1.08177 2.38825 1.05524 2.38018 1.03267 2.36506C1.01011 2.34995 0.992521 2.32847 0.982136 2.30333C0.97175 2.2782 0.969033 2.25054 0.974327 2.22386C0.979622 2.19717 0.99269 2.17266 1.01188 2.15343C1.03107 2.13419 1.05552 2.12109 1.08213 2.11578C1.10875 2.11047 1.13634 2.1132 1.16141 2.12361C1.18648 2.13402 1.20791 2.15165 1.22299 2.17427C1.23807 2.19689 1.24612 2.22349 1.24612 2.25069C1.24612 2.28717 1.23166 2.32216 1.20593 2.34796C1.1802 2.37375 1.14529 2.38825 1.1089 2.38825ZM1.1089 1.92973C1.08177 1.92973 1.05524 1.92167 1.03267 1.90655C1.01011 1.89144 0.992521 1.86995 0.982136 1.84482C0.97175 1.81968 0.969033 1.79203 0.974327 1.76534C0.979622 1.73866 0.99269 1.71415 1.01188 1.69492C1.03107 1.67568 1.05552 1.66258 1.08213 1.65727C1.10875 1.65196 1.13634 1.65469 1.16141 1.6651C1.18648 1.67551 1.20791 1.69314 1.22299 1.71576C1.23807 1.73838 1.24612 1.76497 1.24612 1.79218C1.24612 1.82866 1.23166 1.86365 1.20593 1.88945C1.1802 1.91524 1.14529 1.92973 1.1089 1.92973V1.92973ZM1.61202 2.84676C1.58488 2.84676 1.55835 2.83869 1.53579 2.82357C1.51322 2.80846 1.49563 2.78698 1.48525 2.76184C1.47486 2.73671 1.47215 2.70905 1.47744 2.68237C1.48273 2.65568 1.4958 2.63118 1.51499 2.61194C1.53418 2.5927 1.55863 2.5796 1.58525 2.57429C1.61186 2.56899 1.63945 2.57171 1.66453 2.58212C1.6896 2.59253 1.71103 2.61016 1.7261 2.63278C1.74118 2.6554 1.74923 2.682 1.74923 2.7092C1.74923 2.74568 1.73477 2.78067 1.70904 2.80647C1.68331 2.83226 1.64841 2.84676 1.61202 2.84676ZM1.61202 2.38825C1.58488 2.38825 1.55835 2.38018 1.53579 2.36506C1.51322 2.34995 1.49563 2.32847 1.48525 2.30333C1.47486 2.2782 1.47215 2.25054 1.47744 2.22386C1.48273 2.19717 1.4958 2.17266 1.51499 2.15343C1.53418 2.13419 1.55863 2.12109 1.58525 2.11578C1.61186 2.11047 1.63945 2.1132 1.66453 2.12361C1.6896 2.13402 1.71103 2.15165 1.7261 2.17427C1.74118 2.19689 1.74923 2.22349 1.74923 2.25069C1.74923 2.28717 1.73477 2.32216 1.70904 2.34796C1.68331 2.37375 1.64841 2.38825 1.61202 2.38825ZM1.61202 1.92973C1.58488 1.92973 1.55835 1.92167 1.53579 1.90655C1.51322 1.89144 1.49563 1.86995 1.48525 1.84482C1.47486 1.81968 1.47215 1.79203 1.47744 1.76534C1.48273 1.73866 1.4958 1.71415 1.51499 1.69492C1.53418 1.67568 1.55863 1.66258 1.58525 1.65727C1.61186 1.65196 1.63945 1.65469 1.66453 1.6651C1.6896 1.67551 1.71103 1.69314 1.7261 1.71576C1.74118 1.73838 1.74923 1.76497 1.74923 1.79218C1.74923 1.82866 1.73477 1.86365 1.70904 1.88945C1.68331 1.91524 1.64841 1.92973 1.61202 1.92973V1.92973ZM2.25234 2.7092C2.25234 2.74568 2.23789 2.78067 2.21215 2.80647C2.18642 2.83226 2.15152 2.84676 2.11513 2.84676C2.07874 2.84676 2.04384 2.83226 2.01811 2.80647C1.99237 2.78067 1.97792 2.74568 1.97792 2.7092V2.25069C1.97792 2.21421 1.99237 2.17922 2.01811 2.15343C2.04384 2.12763 2.07874 2.11314 2.11513 2.11314C2.15152 2.11314 2.18642 2.12763 2.21215 2.15343C2.23789 2.17922 2.25234 2.21421 2.25234 2.25069V2.7092ZM2.11513 1.92973C2.08799 1.92973 2.06146 1.92167 2.0389 1.90655C2.01633 1.89144 1.99875 1.86995 1.98836 1.84482C1.97798 1.81968 1.97526 1.79203 1.98055 1.76534C1.98585 1.73866 1.99892 1.71415 2.01811 1.69492C2.0373 1.67568 2.06174 1.66258 2.08836 1.65727C2.11498 1.65196 2.14257 1.65469 2.16764 1.6651C2.19271 1.67551 2.21414 1.69314 2.22922 1.71576C2.24429 1.73838 2.25234 1.76497 2.25234 1.79218C2.25234 1.82866 2.23789 1.86365 2.21215 1.88945C2.18642 1.91524 2.15152 1.92973 2.11513 1.92973V1.92973ZM2.22553 1.35264C2.20838 1.36984 2.18512 1.37951 2.16087 1.37952H1.06317C1.03891 1.37952 1.01564 1.36986 0.998483 1.35266C0.981328 1.33546 0.971691 1.31214 0.971691 1.28782V0.921008C0.971691 0.896687 0.981328 0.873363 0.998483 0.856165C1.01564 0.838968 1.03891 0.829306 1.06317 0.829306H2.16087C2.18513 0.829306 2.20839 0.838968 2.22555 0.856165C2.2427 0.873363 2.25234 0.896687 2.25234 0.921008V1.28782C2.25233 1.31213 2.24269 1.33545 2.22553 1.35264Z" fill="#F2F2F2"/>
</svg>
