<svg width="4" height="3" viewBox="0 0 4 3" fill="none" xmlns="http://www.w3.org/2000/svg">
<path d="M1.15201 0.896118C1.23394 0.896118 1.30957 0.902436 1.3789 0.92139C1.44822 0.934026 1.50494 0.959298 1.55536 0.990887C1.60578 1.02248 1.64359 1.0667 1.6688 1.12356C1.69401 1.18043 1.70662 1.24992 1.70662 1.32574C1.70662 1.41419 1.68771 1.49 1.64359 1.54687C1.60578 1.60373 1.54276 1.65427 1.46713 1.69218C1.57427 1.72377 1.6562 1.78063 1.70662 1.85644C1.75703 1.93226 1.78855 2.02703 1.78855 2.13443C1.78855 2.22288 1.76964 2.2987 1.73813 2.36188C1.70662 2.42506 1.6562 2.48192 1.59948 2.51983C1.54276 2.55774 1.47343 2.58933 1.3978 2.60828C1.32218 2.62723 1.24655 2.63987 1.17092 2.63987H0.326416V0.896118H1.15201ZM1.1016 1.60373C1.17092 1.60373 1.22764 1.58477 1.27176 1.55318C1.31587 1.52159 1.33478 1.46473 1.33478 1.39524C1.33478 1.35733 1.32848 1.31942 1.31587 1.29415C1.30327 1.26888 1.28436 1.24992 1.25915 1.23097C1.23394 1.21833 1.20874 1.2057 1.17722 1.19938C1.14571 1.19306 1.1142 1.19306 1.07639 1.19306H0.710855V1.60373H1.1016ZM1.1205 2.34924C1.15832 2.34924 1.19613 2.34293 1.22764 2.33661C1.25915 2.33029 1.29067 2.31765 1.31587 2.2987C1.34108 2.27975 1.35999 2.26079 1.3789 2.2292C1.3915 2.19761 1.40411 2.15971 1.40411 2.11548C1.40411 2.02703 1.3789 1.96385 1.32848 1.91962C1.27806 1.88172 1.20874 1.86276 1.12681 1.86276H0.710855V2.34924H1.1205ZM2.33684 2.34293C2.38726 2.39347 2.46289 2.41874 2.56373 2.41874C2.63305 2.41874 2.69607 2.39979 2.74649 2.3682C2.79691 2.33029 2.82842 2.29238 2.84103 2.25447H3.14984C3.09942 2.4061 3.02379 2.51351 2.92296 2.58301C2.82212 2.64619 2.70238 2.68409 2.55742 2.68409C2.45659 2.68409 2.36836 2.66514 2.28643 2.63355C2.2045 2.60196 2.14147 2.55774 2.08475 2.49456C2.02803 2.43769 1.98392 2.3682 1.95871 2.28606C1.9272 2.20393 1.91459 2.11548 1.91459 2.01439C1.91459 1.91962 1.9272 1.83117 1.95871 1.74904C1.99022 1.66691 2.03433 1.59741 2.09105 1.53423C2.14778 1.47737 2.2171 1.42682 2.29273 1.39524C2.37466 1.36365 2.45659 1.34469 2.55742 1.34469C2.66456 1.34469 2.7591 1.36365 2.84103 1.40787C2.92296 1.4521 2.98598 1.50264 3.0364 1.57846C3.08682 1.64795 3.12463 1.73009 3.14984 1.81854C3.16244 1.90699 3.16874 1.99544 3.16244 2.09653H2.24861C2.24861 2.19761 2.28643 2.29238 2.33684 2.34293ZM2.73389 1.67954C2.68977 1.63532 2.62045 1.61004 2.53852 1.61004C2.4818 1.61004 2.43768 1.62268 2.39987 1.64163C2.36205 1.66059 2.33684 1.68586 2.31163 1.71113C2.28643 1.7364 2.27382 1.76799 2.26752 1.79958C2.26122 1.83117 2.25491 1.85644 2.25491 1.88172H2.82212C2.80951 1.78695 2.778 1.72377 2.73389 1.67954ZM2.17929 1.01616H2.88514V1.18674H2.17929V1.01616Z" fill="#F2F2F2"/>
</svg>
