<svg width="3" height="3" viewBox="0 0 3 3" fill="none" xmlns="http://www.w3.org/2000/svg">
<path d="M1.61241 0.0761719C1.13467 0.0761719 0.747559 0.462682 0.747559 0.941441C0.747559 1.76926 1.61241 2.84885 1.61241 2.84885C1.61241 2.84885 2.47727 1.76908 2.47727 0.941441C2.47727 0.462855 2.09016 0.0761719 1.61241 0.0761719V0.0761719ZM1.61241 1.4202C1.48855 1.4202 1.36976 1.37087 1.28218 1.28307C1.1946 1.19527 1.14539 1.07619 1.14539 0.952019C1.14539 0.827849 1.1946 0.708765 1.28218 0.620964C1.36976 0.533163 1.48855 0.483837 1.61241 0.483837C1.73628 0.483837 1.85506 0.533163 1.94265 0.620964C2.03023 0.708765 2.07944 0.827849 2.07944 0.952019C2.07944 1.07619 2.03023 1.19527 1.94265 1.28307C1.85506 1.37087 1.73628 1.4202 1.61241 1.4202Z" fill="#F2F2F2"/>
</svg>
