<svg width="8" height="8" viewBox="0 0 8 8" fill="none" xmlns="http://www.w3.org/2000/svg">
<g clip-path="url(#clip0_2_1602)">
<path d="M4.09307 0.786194C4.51926 0.786194 4.92654 0.869415 5.31491 1.03586C5.70327 1.2023 6.03805 1.42611 6.31923 1.7073C6.60042 1.98849 6.82423 2.32326 6.99067 2.71163C7.15712 3.09999 7.24034 3.50727 7.24034 3.93346C7.24034 4.35965 7.15712 4.76756 6.99067 5.15719C6.82423 5.54682 6.60042 5.88159 6.31923 6.16152C6.03805 6.44144 5.70327 6.66463 5.31491 6.83107C4.92654 6.99751 4.51926 7.08073 4.09307 7.08073C3.66688 7.08073 3.2596 6.99751 2.87123 6.83107C2.48287 6.66463 2.14809 6.44144 1.86691 6.16152C1.58572 5.88159 1.36191 5.54682 1.19546 5.15719C1.02902 4.76756 0.945801 4.35965 0.945801 3.93346C0.945801 3.50727 1.02902 3.09999 1.19546 2.71163C1.36191 2.32326 1.58572 1.98849 1.86691 1.7073C2.14809 1.42611 2.48287 1.2023 2.87123 1.03586C3.2596 0.869415 3.66688 0.786194 4.09307 0.786194ZM2.39839 3.20717C2.39839 3.34083 2.44567 3.45494 2.54024 3.54951C2.63481 3.64408 2.74892 3.69136 2.88258 3.69136C3.01624 3.69136 3.13035 3.64408 3.22492 3.54951C3.31949 3.45494 3.36678 3.34083 3.36678 3.20717C3.36678 3.07351 3.31949 2.9594 3.22492 2.86483C3.13035 2.77026 3.01624 2.72297 2.88258 2.72297C2.74892 2.72297 2.63481 2.77026 2.54024 2.86483C2.44567 2.9594 2.39839 3.07351 2.39839 3.20717ZM4.09307 5.87024C4.43856 5.87024 4.7456 5.75739 5.01417 5.53168C5.28275 5.30598 5.45991 5.0166 5.54565 4.66354H2.64048C2.72623 5.01912 2.90276 5.30913 3.17007 5.53358C3.43739 5.75802 3.74505 5.87024 4.09307 5.87024ZM5.30356 3.69136C5.43721 3.69136 5.55133 3.64408 5.6459 3.54951C5.74047 3.45494 5.78775 3.34083 5.78775 3.20717C5.78775 3.07351 5.74047 2.9594 5.6459 2.86483C5.55133 2.77026 5.43721 2.72297 5.30356 2.72297C5.1699 2.72297 5.05579 2.77026 4.96122 2.86483C4.86665 2.9594 4.81936 3.07351 4.81936 3.20717C4.81936 3.34083 4.86665 3.45494 4.96122 3.54951C5.05579 3.64408 5.1699 3.69136 5.30356 3.69136Z" fill="#96005A"/>
</g>
<defs>
<clipPath id="clip0_2_1602">
<rect width="6.29454" height="6.29454" fill="white" transform="translate(0.945801 0.786194)"/>
</clipPath>
</defs>
</svg>
