<svg width="9" height="9" viewBox="0 0 9 9" fill="none" xmlns="http://www.w3.org/2000/svg">
<g clip-path="url(#clip0_2_346)">
<path d="M4.1197 0.703857C4.66795 0.703857 5.19188 0.810913 5.69147 1.02502C6.19106 1.23914 6.62172 1.52705 6.98344 1.88877C7.34516 2.25049 7.63307 2.68114 7.84718 3.18074C8.0613 3.68033 8.16835 4.20426 8.16835 4.75251C8.16835 5.30077 8.0613 5.8255 7.84718 6.32672C7.63307 6.82793 7.34516 7.25859 6.98344 7.61868C6.62172 7.97878 6.19106 8.26589 5.69147 8.48C5.19188 8.69411 4.66795 8.80116 4.1197 8.80116C3.57144 8.80116 3.04752 8.69411 2.54793 8.48C2.04833 8.26589 1.61768 7.97878 1.25596 7.61868C0.894239 7.25859 0.606324 6.82793 0.392212 6.32672C0.178101 5.8255 0.0710449 5.30077 0.0710449 4.75251C0.0710449 4.20426 0.178101 3.68033 0.392212 3.18074C0.606324 2.68114 0.894239 2.25049 1.25596 1.88877C1.61768 1.52705 2.04833 1.23914 2.54793 1.02502C3.04752 0.810913 3.57144 0.703857 4.1197 0.703857ZM1.93965 3.81821C1.93965 3.99014 2.00048 4.13694 2.12214 4.25859C2.24379 4.38025 2.39059 4.44108 2.56252 4.44108C2.73446 4.44108 2.88126 4.38025 3.00291 4.25859C3.12457 4.13694 3.18539 3.99014 3.18539 3.81821C3.18539 3.64627 3.12457 3.49947 3.00291 3.37782C2.88126 3.25616 2.73446 3.19534 2.56252 3.19534C2.39059 3.19534 2.24379 3.25616 2.12214 3.37782C2.00048 3.49947 1.93965 3.64627 1.93965 3.81821ZM4.1197 7.24399C4.56414 7.24399 4.95911 7.09882 5.30461 6.80847C5.65011 6.51812 5.87801 6.14586 5.98831 5.69168H2.25109C2.36139 6.1491 2.58848 6.52217 2.93235 6.8109C3.27623 7.09963 3.67201 7.24399 4.1197 7.24399ZM5.67687 4.44108C5.84881 4.44108 5.99561 4.38025 6.11726 4.25859C6.23892 4.13694 6.29974 3.99014 6.29974 3.81821C6.29974 3.64627 6.23892 3.49947 6.11726 3.37782C5.99561 3.25616 5.84881 3.19534 5.67687 3.19534C5.50493 3.19534 5.35814 3.25616 5.23648 3.37782C5.11483 3.49947 5.054 3.64627 5.054 3.81821C5.054 3.99014 5.11483 4.13694 5.23648 4.25859C5.35814 4.38025 5.50493 4.44108 5.67687 4.44108Z" fill="#2F80ED"/>
</g>
<defs>
<clipPath id="clip0_2_346">
<rect width="8.09731" height="8.09731" fill="white" transform="translate(0.0710449 0.703857)"/>
</clipPath>
</defs>
</svg>
