<svg width="6" height="6" viewBox="0 0 6 6" fill="none" xmlns="http://www.w3.org/2000/svg">
<g clip-path="url(#clip0_2_199)">
<path d="M4.37789 3.07631C4.14396 3.07631 3.90508 3.09937 3.66127 3.1455C3.57231 2.8918 3.47182 2.65457 3.35979 2.43382C3.66621 2.28885 3.93886 2.10599 4.17773 1.88524C4.4166 1.66448 4.60523 1.41737 4.74361 1.14391C5.02367 1.38113 5.2436 1.66778 5.40339 2.00385C5.56319 2.33992 5.64309 2.6974 5.64309 3.07631C5.64309 3.13891 5.6398 3.21304 5.63321 3.29871C5.23124 3.15044 4.8128 3.07631 4.37789 3.07631ZM3.20659 2.15706C2.85404 1.54752 2.43395 1.10601 1.94632 0.832546C2.31205 0.641448 2.70083 0.545898 3.11268 0.545898C3.6102 0.545898 4.06818 0.680985 4.48662 0.951159C4.36141 1.20815 4.18926 1.44044 3.97016 1.64801C3.75105 1.85558 3.49653 2.02526 3.20659 2.15706ZM2.91994 2.26579C2.57398 2.3844 2.2165 2.4437 1.84748 2.4437C1.46528 2.4437 1.09132 2.37781 0.725599 2.24602C0.900224 1.74521 1.2017 1.3383 1.63002 1.02529C2.13083 1.24934 2.5608 1.66284 2.91994 2.26579ZM1.84748 2.76001C2.2758 2.76001 2.68436 2.68917 3.07315 2.54749C3.17858 2.75836 3.27413 2.9824 3.35979 3.21963C2.89193 3.35472 2.4842 3.57217 2.1366 3.872C1.789 4.17183 1.53612 4.51943 1.37797 4.91481C1.12757 4.68088 0.932348 4.40494 0.792319 4.08699C0.65229 3.76904 0.582275 3.43215 0.582275 3.07631C0.582275 2.89839 0.600397 2.72212 0.63664 2.54749C1.03531 2.68917 1.43892 2.76001 1.84748 2.76001ZM3.4537 3.5211C3.6382 4.14712 3.73375 4.81431 3.74034 5.5227C3.52948 5.57871 3.32026 5.60671 3.11268 5.60671C2.57234 5.60671 2.08141 5.44692 1.63991 5.12732C1.76511 4.75171 1.98833 4.42223 2.30958 4.13888C2.63082 3.85553 3.01219 3.6496 3.4537 3.5211ZM3.76011 3.45191C3.96768 3.41238 4.17361 3.39261 4.37789 3.39261C4.79303 3.39261 5.195 3.46839 5.58379 3.61995C5.49483 4.0285 5.31444 4.39258 5.04261 4.71218C4.77079 5.03177 4.44214 5.269 4.05664 5.42385C4.04017 4.72206 3.94133 4.06475 3.76011 3.45191Z" fill="#2F80ED"/>
</g>
<defs>
<clipPath id="clip0_2_199">
<rect width="5.06082" height="5.06082" fill="white" transform="translate(0.582275 0.545898)"/>
</clipPath>
</defs>
</svg>
